<svg width="81" height="11" viewBox="0 0 81 11" fill="none" xmlns="http://www.w3.org/2000/svg">
<path d="M4.74414 5.08496H7.21191V6.86914H4.74414V9.6582H2.86426V6.86914H0.389648V5.08496H2.86426V2.41211H4.74414V5.08496ZM17.6367 8.60547H14.041L13.3574 10.6562H11.1768L14.8818 0.703125H16.7822L20.5078 10.6562H18.3271L17.6367 8.60547ZM14.5947 6.94434H17.083L15.832 3.21875L14.5947 6.94434ZM21.4375 10.6562V0.703125H24.5C25.375 0.703125 26.1566 0.901367 26.8447 1.29785C27.5374 1.68978 28.0775 2.25033 28.4648 2.97949C28.8522 3.7041 29.0459 4.52897 29.0459 5.4541V5.91211C29.0459 6.83724 28.8545 7.65983 28.4717 8.37988C28.0934 9.09993 27.5579 9.6582 26.8652 10.0547C26.1725 10.4512 25.391 10.6517 24.5205 10.6562H21.4375ZM23.4883 2.36426V9.00879H24.4795C25.2816 9.00879 25.8945 8.74674 26.3184 8.22266C26.7422 7.69857 26.9587 6.94889 26.9678 5.97363V5.44727C26.9678 4.43555 26.7581 3.66992 26.3389 3.15039C25.9196 2.6263 25.3066 2.36426 24.5 2.36426H23.4883ZM30.543 10.6562V0.703125H33.6055C34.4805 0.703125 35.262 0.901367 35.9502 1.29785C36.6429 1.68978 37.1829 2.25033 37.5703 2.97949C37.9577 3.7041 38.1514 4.52897 38.1514 5.4541V5.91211C38.1514 6.83724 37.96 7.65983 37.5771 8.37988C37.1989 9.09993 36.6634 9.6582 35.9707 10.0547C35.278 10.4512 34.4964 10.6517 33.626 10.6562H30.543ZM32.5938 2.36426V9.00879H33.585C34.387 9.00879 35 8.74674 35.4238 8.22266C35.8477 7.69857 36.0641 6.94889 36.0732 5.97363V5.44727C36.0732 4.43555 35.8636 3.66992 35.4443 3.15039C35.0251 2.6263 34.4121 2.36426 33.6055 2.36426H32.5938ZM45.8145 0.703125L48.3711 7.92188L50.9141 0.703125H53.6074V10.6562H51.5498V7.93555L51.7549 3.23926L49.0684 10.6562H47.6602L44.9805 3.24609L45.1855 7.93555V10.6562H43.1348V0.703125H45.8145ZM63.5742 5.90527C63.5742 6.88509 63.401 7.74414 63.0547 8.48242C62.7083 9.2207 62.2116 9.79036 61.5645 10.1914C60.9219 10.5924 60.1836 10.793 59.3496 10.793C58.5247 10.793 57.7887 10.5947 57.1416 10.1982C56.4945 9.80176 55.9932 9.23665 55.6377 8.50293C55.2822 7.76465 55.1022 6.91699 55.0977 5.95996V5.46777C55.0977 4.48796 55.2731 3.62663 55.624 2.88379C55.9795 2.13639 56.4785 1.56445 57.1211 1.16797C57.7682 0.766927 58.5065 0.566406 59.3359 0.566406C60.1654 0.566406 60.9014 0.766927 61.5439 1.16797C62.1911 1.56445 62.6901 2.13639 63.041 2.88379C63.3965 3.62663 63.5742 4.48568 63.5742 5.46094V5.90527ZM61.4961 5.4541C61.4961 4.41048 61.3092 3.61751 60.9355 3.0752C60.5618 2.53288 60.0286 2.26172 59.3359 2.26172C58.6478 2.26172 58.1169 2.5306 57.7432 3.06836C57.3695 3.60156 57.1803 4.38542 57.1758 5.41992V5.90527C57.1758 6.92155 57.3626 7.70996 57.7363 8.27051C58.11 8.83105 58.6478 9.11133 59.3496 9.11133C60.0378 9.11133 60.5664 8.84245 60.9355 8.30469C61.3047 7.76237 61.4915 6.97396 61.4961 5.93945V5.4541ZM68.749 7.0127H67.1152V10.6562H65.0645V0.703125H68.7627C69.9385 0.703125 70.8454 0.965169 71.4834 1.48926C72.1214 2.01335 72.4404 2.75391 72.4404 3.71094C72.4404 4.38997 72.2923 4.95736 71.9961 5.41309C71.7044 5.86426 71.2601 6.22428 70.6631 6.49316L72.8164 10.5605V10.6562H70.6152L68.749 7.0127ZM67.1152 5.35156H68.7695C69.2845 5.35156 69.6833 5.22168 69.9658 4.96191C70.2484 4.69759 70.3896 4.33529 70.3896 3.875C70.3896 3.4056 70.2552 3.03646 69.9863 2.76758C69.722 2.4987 69.3141 2.36426 68.7627 2.36426H67.1152V5.35156ZM79.9941 6.34277H76.0566V9.00879H80.6777V10.6562H74.0059V0.703125H80.6641V2.36426H76.0566V4.73633H79.9941V6.34277Z" fill="#0C1B36"/>
</svg>
