<svg width="16" height="8" viewBox="0 0 16 8" fill="none" xmlns="http://www.w3.org/2000/svg">
<path d="M15.375 3.375H2.13882L4.33145 1.193C4.57611 0.949498 4.57704 0.553779 4.33354 0.309123C4.09004 0.0644353 3.69429 0.0635292 3.44964 0.306998L0.183887 3.557C0.183668 3.55719 0.183512 3.5574 0.183324 3.55759C-0.0607069 3.80109 -0.0614882 4.19809 0.183262 4.4424C0.183481 4.44259 0.183637 4.44281 0.183824 4.443L3.44957 7.693C3.6942 7.93644 4.08995 7.93559 4.33348 7.69087C4.57698 7.44622 4.57604 7.0505 4.33139 6.807L2.13882 4.625H15.375C15.7202 4.625 16 4.34519 16 4C16 3.65481 15.7202 3.375 15.375 3.375Z" fill="#7A7A7A"/>
</svg>
