<svg width="27" height="23" viewBox="0 0 27 23" fill="none" xmlns="http://www.w3.org/2000/svg">
    <path d="M24.5 3.5H20.25L19.2375 0.6625C19.1675 0.468338 19.0394 0.300506 18.8704 0.18193C18.7015 0.0633543 18.5001 -0.000182068 18.2938 3.91884e-07H8.70625C8.28438 3.91884e-07 7.90625 0.265625 7.76562 0.6625L6.75 3.5H2.5C1.11875 3.5 0 4.61875 0 6V20.25C0 21.6313 1.11875 22.75 2.5 22.75H24.5C25.8813 22.75 27 21.6313 27 20.25V6C27 4.61875 25.8813 3.5 24.5 3.5ZM13.5 17.75C10.7375 17.75 8.5 15.5125 8.5 12.75C8.5 9.9875 10.7375 7.75 13.5 7.75C16.2625 7.75 18.5 9.9875 18.5 12.75C18.5 15.5125 16.2625 17.75 13.5 17.75ZM10.5 12.75C10.5 13.5456 10.8161 14.3087 11.3787 14.8713C11.9413 15.4339 12.7044 15.75 13.5 15.75C14.2956 15.75 15.0587 15.4339 15.6213 14.8713C16.1839 14.3087 16.5 13.5456 16.5 12.75C16.5 11.9544 16.1839 11.1913 15.6213 10.6287C15.0587 10.0661 14.2956 9.75 13.5 9.75C12.7044 9.75 11.9413 10.0661 11.3787 10.6287C10.8161 11.1913 10.5 11.9544 10.5 12.75Z" fill="white"/>
</svg>
