<svg width="10" height="20" viewBox="0 0 10 20" fill="none" xmlns="http://www.w3.org/2000/svg">
<path d="M5 9C3.6215 9 2.5 7.8785 2.5 6.5C2.5 5.1215 3.6215 4 5 4C6.3785 4 7.5 5.1215 7.5 6.5C7.5 7.05225 7.94769 7.5 8.5 7.5C9.05231 7.5 9.5 7.05225 9.5 6.5C9.5 4.36244 8.00138 2.5695 6 2.11337V1C6 0.44775 5.55231 0 5 0C4.44769 0 4 0.44775 4 1V2.11337C1.99863 2.5695 0.5 4.36244 0.5 6.5C0.5 8.98131 2.51869 11 5 11C6.3785 11 7.5 12.1215 7.5 13.5C7.5 14.8785 6.3785 16 5 16C3.6215 16 2.5 14.8785 2.5 13.5C2.5 12.9478 2.05231 12.5 1.5 12.5C0.947688 12.5 0.5 12.9478 0.5 13.5C0.5 15.6376 1.99863 17.4305 4 17.8866V19C4 19.5522 4.44769 20 5 20C5.55231 20 6 19.5522 6 19V17.8866C8.00138 17.4305 9.5 15.6376 9.5 13.5C9.5 11.0187 7.48131 9 5 9Z" fill="#204079"/>
</svg>
