<svg width="75" height="75" viewBox="0 0 75 75" fill="none" xmlns="http://www.w3.org/2000/svg">
<g clip-path="url(#clip0_3166_30881)">
<path d="M73.8567 28.3499C73.2341 27.9408 72.4485 27.8727 71.7647 28.1679L36.1186 43.5751L2.99704 28.192C2.31211 27.8744 1.51274 27.9276 0.875879 28.3339C0.239586 28.7396 -0.145508 29.4428 -0.145508 30.1975V72.5024C-0.145508 73.7235 0.844408 74.7134 2.06549 74.7134H72.6419C73.8635 74.7134 74.8535 73.7235 74.8535 72.5024V30.1975C74.8535 29.4531 74.4787 28.7584 73.8567 28.3499Z" fill="#CDF5FF"/>
<path d="M73.8564 28.3499C73.2339 27.9408 72.4482 27.8727 71.7644 28.1679L36.1183 43.5751L36.1006 43.5671V74.7134H72.6416C73.8633 74.7134 74.8532 73.7235 74.8532 72.5024V30.1975C74.8532 29.4531 74.4784 28.7584 73.8564 28.3499Z" fill="#ABDDFF"/>
<path d="M9.55425 10.988C8.51913 10.7826 7.48343 11.3359 7.08003 12.3104L0.0224478 29.3512C-0.431311 30.4464 0.0590691 31.7041 1.13367 32.2031L8.19125 35.4807C8.48823 35.6186 8.8058 35.6867 9.1228 35.6867C9.53765 35.6867 9.95136 35.5699 10.3124 35.3393C10.9487 34.9336 11.3344 34.2304 11.3344 33.4757V13.1567C11.3344 12.1021 10.5888 11.194 9.55425 10.988Z" fill="#8BC8E8"/>
<path d="M74.685 29.3512L67.6274 12.3104C67.2234 11.3359 66.1877 10.7826 65.1526 10.988C64.1181 11.194 63.373 12.1021 63.373 13.1567V33.2479C63.373 33.9924 63.7478 34.687 64.3698 35.0962C64.736 35.3365 65.1589 35.4595 65.584 35.4595C65.8816 35.4595 66.1803 35.3994 66.4612 35.2775L73.5188 32.2271C74.6283 31.7482 75.1473 30.4676 74.685 29.3512Z" fill="#6E96DC"/>
<path d="M35.4143 48.0068C35.7079 48.1419 36.0231 48.2094 36.339 48.2094C36.64 48.2094 36.941 48.1482 37.2225 48.0251L67.7954 34.7013V2.50391C67.7954 1.28282 66.8055 0.292908 65.5839 0.292908H9.12262C7.90154 0.292908 6.91162 1.28282 6.91162 2.50391V34.8867L35.4143 48.0068Z" fill="#F4F4F4"/>
<path d="M65.584 0.292908H36.1006V48.1962C36.1801 48.2048 36.2597 48.2094 36.3392 48.2094C36.6402 48.2094 36.9412 48.1476 37.2227 48.0251L67.7956 34.7013V2.50391C67.7956 1.28282 66.8057 0.292908 65.584 0.292908Z" fill="#E2E2E2"/>
<path d="M37.3537 10.6567C29.8578 10.6567 23.7593 16.7552 23.7593 24.2511C23.7593 31.747 29.8578 37.8456 37.3537 37.8456C44.8496 37.8456 50.9482 31.747 50.9482 24.2511C50.9482 16.7552 44.8496 10.6567 37.3537 10.6567Z" fill="#CDF5FF"/>
<path d="M35.8645 29.1086C35.286 29.1086 34.7098 28.8826 34.2777 28.438L30.9241 24.9853C30.0732 24.1093 30.0932 22.7096 30.9693 21.8588C31.8453 21.0079 33.2455 21.0279 34.0964 21.904L36.0201 23.885L40.7786 19.9081C41.7153 19.1254 43.1097 19.2495 43.8931 20.1868C44.6764 21.1241 44.5517 22.5185 43.6144 23.3019L37.2818 28.5942C36.8698 28.9387 36.3663 29.1086 35.8645 29.1086Z" fill="#48B1FF"/>
<path d="M37.3537 10.6567C36.9314 10.6567 36.5131 10.6773 36.1006 10.715V37.7872C36.5131 37.825 36.9314 37.8456 37.3537 37.8456C44.8496 37.8456 50.9482 31.747 50.9482 24.2511C50.9482 16.7552 44.8496 10.6567 37.3537 10.6567Z" fill="#ABDDFF"/>
<path d="M43.8935 20.1868C43.1101 19.2495 41.7156 19.1254 40.7789 19.9081L36.1006 23.818V29.0943C36.5223 29.0497 36.9349 28.8849 37.2822 28.5942L43.6148 23.3013C44.5521 22.5185 44.6768 21.1241 43.8935 20.1868Z" fill="#2386E8"/>
</g>
<defs>
<clipPath id="clip0_3166_30881">
<rect width="75" height="75" fill="white"/>
</clipPath>
</defs>
</svg>
