<svg width="48" height="48" viewBox="0 0 48 48" fill="none" xmlns="http://www.w3.org/2000/svg">
<path d="M47.2969 44.0684L32.0801 28.8516C34.4414 25.7988 35.7187 22.0664 35.7187 18.1406C35.7187 13.4414 33.8848 9.03516 30.5684 5.71289C27.2519 2.39062 22.834 0.5625 18.1406 0.5625C13.4473 0.5625 9.02929 2.39648 5.71289 5.71289C2.39062 9.02929 0.5625 13.4414 0.5625 18.1406C0.5625 22.834 2.39648 27.2519 5.71289 30.5684C9.02929 33.8906 13.4414 35.7187 18.1406 35.7187C22.0664 35.7187 25.793 34.4414 28.8457 32.0859L44.0625 47.2969C44.1071 47.3415 44.1601 47.3769 44.2184 47.4011C44.2767 47.4253 44.3392 47.4377 44.4023 47.4377C44.4655 47.4377 44.528 47.4253 44.5863 47.4011C44.6446 47.3769 44.6976 47.3415 44.7422 47.2969L47.2969 44.748C47.3415 44.7034 47.3769 44.6504 47.4011 44.5921C47.4253 44.5338 47.4377 44.4713 47.4377 44.4082C47.4377 44.3451 47.4253 44.2826 47.4011 44.2243C47.3769 44.166 47.3415 44.113 47.2969 44.0684ZM27.4219 27.4219C24.9375 29.9004 21.6445 31.2656 18.1406 31.2656C14.6367 31.2656 11.3437 29.9004 8.85937 27.4219C6.38086 24.9375 5.01562 21.6445 5.01562 18.1406C5.01562 14.6367 6.38086 11.3379 8.85937 8.85937C11.3437 6.38086 14.6367 5.01562 18.1406 5.01562C21.6445 5.01562 24.9434 6.375 27.4219 8.85937C29.9004 11.3437 31.2656 14.6367 31.2656 18.1406C31.2656 21.6445 29.9004 24.9434 27.4219 27.4219Z" fill="#C6C6C6"/>
</svg>
