<svg width="22" height="22" viewBox="0 0 22 22" fill="none" xmlns="http://www.w3.org/2000/svg">
<path d="M20.8302 10.6918L1.22469 0.862137C1.145 0.822293 1.05359 0.812918 0.966873 0.834012C0.767654 0.88323 0.643435 1.08479 0.692654 1.28636L2.71297 9.54104C2.74344 9.66526 2.83484 9.76604 2.95672 9.80589L6.41844 10.9942L2.95906 12.1824C2.83719 12.2246 2.74578 12.3231 2.71765 12.4473L0.692654 20.7137C0.67156 20.8004 0.680936 20.8918 0.720779 20.9692C0.812186 21.1543 1.03719 21.2293 1.22469 21.1379L20.8302 11.3645C20.9028 11.3293 20.9614 11.2684 20.9989 11.1981C21.0903 11.0106 21.0153 10.7856 20.8302 10.6918ZM3.00359 18.3653L4.1825 13.5465L11.1012 11.1723C11.1552 11.1535 11.1997 11.1114 11.2184 11.0551C11.2512 10.9567 11.1997 10.8512 11.1012 10.816L4.1825 8.44417L3.00828 3.64417L17.727 11.0246L3.00359 18.3653Z" fill="#262626"/>
</svg>
