<svg width="12" height="14" viewBox="0 0 12 14" fill="none" xmlns="http://www.w3.org/2000/svg">
<path d="M11.7257 2.70741C11.6732 2.64754 11.609 2.59914 11.537 2.56522C11.465 2.53131 11.3868 2.51263 11.3073 2.51033C10.0715 2.47802 8.50782 1.15664 7.47397 0.638099C6.83536 0.318792 6.41374 0.108253 6.09713 0.0527915C6.03284 0.0434237 5.96752 0.0436051 5.90328 0.05333C5.58667 0.108792 5.16505 0.31933 4.52697 0.638638C3.49313 1.15664 1.92944 2.47856 0.693667 2.51033C0.614066 2.51275 0.53581 2.53148 0.463748 2.56538C0.391687 2.59928 0.327356 2.64762 0.274744 2.70741C0.16569 2.83079 0.109425 2.99204 0.118051 3.15648C0.383513 8.55348 2.31928 11.8936 5.7159 13.8347C5.80421 13.8848 5.9022 13.9106 5.99967 13.9106C6.09713 13.9106 6.19513 13.8848 6.28397 13.8347C9.68059 11.8936 11.6158 8.55348 11.8818 3.15648C11.8909 2.99207 11.8348 2.83069 11.7257 2.70741ZM6.00021 9.72302C5.13521 9.72302 4.30565 9.37941 3.694 8.76776C3.08236 8.15612 2.73874 7.32655 2.73874 6.46156C2.73874 5.59657 3.08236 4.767 3.694 4.15536C4.30565 3.54372 5.13521 3.2001 6.00021 3.2001C6.8652 3.2001 7.69476 3.54372 8.30641 4.15536C8.91805 4.767 9.26167 5.59657 9.26167 6.46156C9.26167 7.32655 8.91805 8.15612 8.30641 8.76776C7.69476 9.37941 6.8652 9.72302 6.00021 9.72302ZM7.33559 4.58179L4.12044 7.79695C3.84054 7.40785 3.68952 6.94087 3.68859 6.46156C3.68944 5.84874 3.93326 5.26127 4.36659 4.82795C4.79992 4.39462 5.38739 4.1508 6.00021 4.14995C6.49882 4.14995 6.95705 4.31202 7.33559 4.58179ZM7.87944 5.12618C8.14921 5.50418 8.31182 5.96348 8.31182 6.46156C8.31097 7.07438 8.06715 7.66185 7.63382 8.09518C7.20049 8.5285 6.61302 8.77232 6.00021 8.77318C5.52088 8.77232 5.05388 8.6213 4.66482 8.34133L7.87944 5.12618Z" fill="#6D6D6D"/>
</svg>
