<svg width="25" height="17" viewBox="0 0 25 17" fill="none" xmlns="http://www.w3.org/2000/svg">
<path d="M12.5 0C6.8192 0 1.98661 3.51258 0 8.5C1.98661 13.4874 6.8192 17 12.5 17C18.1808 17 23.0134 13.4874 25 8.5C23.0134 3.51258 18.1808 0 12.5 0ZM12.5 14.1685C9.375 14.1685 6.8192 11.6185 6.8192 8.5C6.8192 5.38146 9.375 2.83146 12.5 2.83146C15.625 2.83146 18.1808 5.38146 18.1808 8.5C18.1808 11.6185 15.625 14.1685 12.5 14.1685ZM12.5 5.1C10.625 5.1 9.0904 6.63113 9.0904 8.5C9.0904 10.3689 10.625 11.9 12.5 11.9C14.375 11.9 15.9096 10.3689 15.9096 8.5C15.9096 6.63113 14.375 5.1 12.5 5.1Z" fill="#C6C6C6"/>
</svg>
