<svg width="254" height="201" viewBox="0 0 254 201" fill="none" xmlns="http://www.w3.org/2000/svg">
<path d="M37.1967 181.211C86.7922 207.129 167.208 207.129 216.803 181.211C266.399 155.292 266.399 113.326 216.803 87.4305C167.208 61.5347 86.7922 61.5117 37.1967 87.4305C-12.3989 113.349 -12.3989 155.315 37.1967 181.211Z" fill="#EDEDED"/>
<path d="M193.156 20.762L170.44 0L147.724 46.9951L156.965 41.656V111.978L183.92 96.4121V26.0956L193.156 20.762Z" fill="url(#paint0_linear_3157_21548)"/>
<path d="M156.965 111.978L168.882 118.655V48.3384L156.965 41.6562V111.978Z" fill="url(#paint1_linear_3157_21548)"/>
<path d="M205.078 27.4386L182.362 6.68213L159.646 53.6718L168.882 48.3382V118.655L195.836 103.094V32.7777L205.078 27.4386Z" fill="url(#paint2_linear_3157_21548)"/>
<path opacity="0.95" d="M182.692 8.39945L204.098 28.0055L205.078 27.4386L182.362 6.68213L159.646 53.6718L161.05 52.8626L182.692 8.39945Z" fill="#204079"/>
<path opacity="0.95" d="M179.351 93.6323V110.261L187.916 105.312V88.6895L179.351 93.6323Z" fill="#204079"/>
<path opacity="0.95" d="M179.351 56.6664V68.9684L187.916 64.0256V51.7236L179.351 56.6664Z" fill="#204079"/>
<path opacity="0.95" d="M179.351 38.3756V50.672L187.916 45.7292V33.4272L179.351 38.3756Z" fill="#204079"/>
<path d="M147.724 46.9951L159.646 53.6718L182.362 6.68214L170.44 0L147.724 46.9951Z" fill="#204079"/>
<path d="M179.351 93.6324V110.261L187.916 105.307V88.6841L179.351 93.6324ZM185.89 104.195L180.023 107.586V94.0782L185.89 90.6876V104.195Z" fill="#B0B7E6"/>
<path opacity="0.95" d="M186.848 89.3059V104.751L179.351 109.077V110.261L187.916 105.312V88.6895L186.848 89.3059Z" fill="white"/>
<path opacity="0.95" d="M179.351 75.1215V87.4235L187.916 82.4752V70.1787L179.351 75.1215Z" fill="#204079"/>
<path d="M179.351 38.3756V50.672L187.916 45.7182V33.4272L179.351 38.3756ZM180.023 38.8159L182.516 37.3738V46.5603L180.023 47.9969V38.8159ZM185.89 44.6118L183.479 46.0044V36.8013L185.89 35.4088V44.6118Z" fill="url(#paint3_linear_3157_21548)"/>
<path d="M181.294 111.439V112.462L189.975 107.487V106.468L181.294 111.439Z" fill="#CED3F4"/>
<path d="M183.243 113.585V114.829L191.917 109.859V108.609L183.243 113.585Z" fill="#CED3F4"/>
<path d="M181.278 112.424L183.248 113.585L191.918 108.609L189.936 107.448L181.278 112.424Z" fill="url(#paint4_linear_3157_21548)"/>
<path d="M179.329 110.283L181.3 111.439L189.974 106.468L186.837 104.734L179.346 109.094L179.329 110.283Z" fill="url(#paint5_linear_3157_21548)"/>
<path d="M183.276 114.796V114.609L183.248 114.576V113.585L181.3 112.44V111.438L179.357 110.293V112.6L183.276 114.796Z" fill="#AFB6E5"/>
<path d="M179.351 56.6719V68.9684L187.916 64.0146V51.7236L179.351 56.6719ZM180.023 57.1123L182.516 55.6702V64.8732L180.023 66.3098V57.1123ZM185.89 62.9082L183.479 64.3228V55.1197L185.89 53.7272V62.9082Z" fill="#B0B7E6"/>
<path d="M179.351 75.1215V87.44L187.916 82.4862V70.1787L179.351 75.1215ZM180.023 75.5673L182.516 74.1252V83.3063L180.023 84.7484V75.5673ZM185.89 81.3853L183.479 82.7779V73.5693L185.89 72.1767V81.3853Z" fill="#B0B7E6"/>
<path opacity="0.95" d="M186.848 52.3401V63.4642L179.351 67.7905V68.9684L187.916 64.0256V51.7236L186.848 52.3401Z" fill="white"/>
<path opacity="0.95" d="M186.848 70.7952V81.9137L179.351 86.2456V87.4235L187.916 82.4752V70.1787L186.848 70.7952Z" fill="white"/>
<path opacity="0.95" d="M186.848 34.0437V45.1678L179.351 49.4941V50.672L187.916 45.7292V33.4272L186.848 34.0437Z" fill="white"/>
<path d="M143.799 71.7751L121.078 51.0132L98.3618 98.0028L107.603 92.6692V140.484L134.558 124.924V77.1087L143.799 71.7751Z" fill="url(#paint6_linear_3157_21548)"/>
<path d="M107.604 140.485L119.52 147.167V99.3516L107.604 92.6694V140.485Z" fill="url(#paint7_linear_3157_21548)"/>
<path d="M155.716 78.4519L133 57.6899L110.284 104.685L119.52 99.3515V147.167L146.475 131.601V83.7855L155.716 78.4519Z" fill="url(#paint8_linear_3157_21548)"/>
<path opacity="0.95" d="M133.33 59.4128L154.742 79.0188L155.716 78.4519L133 57.6899L110.284 104.685L111.688 103.876L133.33 59.4128Z" fill="#204079"/>
<path opacity="0.95" d="M129.989 122.139V138.767L138.554 133.819V117.196L129.989 122.139Z" fill="#204079"/>
<path opacity="0.95" d="M129.989 104.079V116.381L138.554 111.433V99.1309L129.989 104.079Z" fill="#204079"/>
<path opacity="0.95" d="M129.989 85.7836V98.0856L138.554 93.1373V80.8408L129.989 85.7836Z" fill="#204079"/>
<path d="M98.3618 98.0028L110.284 104.685L133 57.6898L121.078 51.0132L98.3618 98.0028Z" fill="#204079"/>
<path d="M129.989 122.117V138.746L138.554 133.792V117.169L129.989 122.117ZM136.512 132.702L130.65 136.092V122.585L136.512 119.194V132.702Z" fill="#B0B7E6"/>
<path opacity="0.95" d="M137.486 117.813V133.258L129.989 137.584V138.767L138.554 133.819V117.196L137.486 117.813Z" fill="white"/>
<path d="M129.989 85.7893V98.0912L138.554 93.1374V80.8354L129.989 85.7893ZM130.666 86.2296L133.209 84.7435V93.9245L130.644 95.4107L130.666 86.2296ZM136.512 92.0201L134.068 93.4346V84.2481L136.512 82.839V92.0201Z" fill="#B0B7E6"/>
<path d="M129.989 104.079V116.381L138.554 111.427V99.1362L129.989 104.079ZM130.666 104.519L133.231 103.039V112.209L130.666 113.695V104.519ZM136.512 110.315L134.068 111.73V102.543L136.512 101.134V110.315Z" fill="#B0B7E6"/>
<path d="M131.932 139.945V140.969L140.612 135.993V134.975L131.932 139.945Z" fill="#CED3F4"/>
<path d="M133.881 142.092V143.336L142.561 138.365V137.116L133.881 142.092Z" fill="#CED3F4"/>
<path d="M131.916 140.936L133.886 142.092L142.561 137.116L140.574 135.955L131.916 140.936Z" fill="url(#paint9_linear_3157_21548)"/>
<path d="M129.973 138.789L131.938 139.945L140.613 134.975L137.475 133.241L129.984 137.6L129.973 138.789Z" fill="url(#paint10_linear_3157_21548)"/>
<path d="M133.914 143.302V143.115L133.886 143.082V142.091L131.938 140.946V139.945L129.995 138.8V141.106L133.914 143.302Z" fill="#AFB6E5"/>
<path opacity="0.95" d="M137.486 99.7528V110.871L129.989 115.198V116.381L138.554 111.433V99.1309L137.486 99.7528Z" fill="white"/>
<path opacity="0.95" d="M137.486 81.4573V92.5758L129.989 96.9077V98.0856L138.554 93.1373V80.8408L137.486 81.4573Z" fill="white"/>
<path d="M94.4374 118.132L71.7215 97.3696L49 144.365L58.2416 139.031V168.842L85.1958 153.276V123.465L94.4374 118.132Z" fill="url(#paint11_linear_3157_21548)"/>
<path d="M58.2415 168.842L70.1581 175.519V145.708L58.2415 139.031V168.842Z" fill="url(#paint12_linear_3157_21548)"/>
<path d="M106.354 124.814L83.6381 104.052L60.9221 151.041L70.1582 145.708V175.519L97.1179 159.958V130.147L106.354 124.814Z" fill="url(#paint13_linear_3157_21548)"/>
<path opacity="0.95" d="M83.9683 105.775L105.38 125.375L106.354 124.814L83.6381 104.052L60.9221 151.041L62.3257 150.232L83.9683 105.775Z" fill="#204079"/>
<path opacity="0.95" d="M80.6272 150.497V167.12L89.1918 162.177V145.554L80.6272 150.497Z" fill="#204079"/>
<path opacity="0.95" d="M80.6272 131.694V143.996L89.1918 139.048V126.746L80.6272 131.694Z" fill="#204079"/>
<path d="M49 144.365L60.9222 151.041L83.6381 104.052L71.7215 97.3696L49 144.365Z" fill="#204079"/>
<path d="M80.6272 150.497V167.125L89.1918 162.172V145.549L80.6272 150.497ZM87.1662 161.06L81.3042 164.445V150.937L87.1662 147.552V161.06Z" fill="#B0B7E6"/>
<path opacity="0.95" d="M88.124 146.171V161.616L80.6272 165.942V167.12L89.1918 162.177V145.554L88.124 146.171Z" fill="white"/>
<path d="M80.6272 131.694V143.996L89.1918 139.043V126.746L80.6272 131.694ZM81.3042 132.135L83.8307 130.676V139.857L81.3042 141.321V132.135ZM87.1662 137.931L84.6893 139.367V130.181L87.1662 128.75V137.931Z" fill="#B0B7E6"/>
<path opacity="0.95" d="M88.124 127.368V138.487L80.6272 142.813V143.996L89.1918 139.048V126.746L88.124 127.368Z" fill="white"/>
<path d="M82.5703 168.303V169.327L91.2505 164.351V163.327L82.5703 168.303Z" fill="#CED3F4"/>
<path d="M84.5188 170.449V171.693L93.199 166.723V165.474L84.5188 170.449Z" fill="#CED3F4"/>
<path d="M82.5537 169.288L84.5242 170.449L93.1989 165.474L91.2174 164.307L82.5537 169.288Z" fill="url(#paint14_linear_3157_21548)"/>
<path d="M80.6106 167.147L82.5756 168.303L91.2503 163.327L88.1129 161.599L80.6216 165.958L80.6106 167.147Z" fill="url(#paint15_linear_3157_21548)"/>
<path d="M84.5518 171.66V171.468L84.5243 171.44V170.449L82.5758 169.304V168.303L80.6328 167.158V169.464L84.5518 171.66Z" fill="#AFB6E5"/>
<path style="mix-blend-mode:screen" d="M179.913 103.568L186.193 90.5723L179.913 94.2436V103.568Z" fill="url(#paint16_radial_3157_21548)"/>
<defs>
<linearGradient id="paint0_linear_3157_21548" x1="147.724" y1="55.989" x2="193.156" y2="55.989" gradientUnits="userSpaceOnUse">
<stop stop-color="#AFB6E5"/>
<stop offset="0.14" stop-color="#B6BCE8"/>
<stop offset="0.35" stop-color="#C8CDF1"/>
<stop offset="0.58" stop-color="#E5E9FF"/>
<stop offset="0.95" stop-color="#F5F4FC"/>
<stop offset="1" stop-color="#F7F6FB"/>
</linearGradient>
<linearGradient id="paint1_linear_3157_21548" x1="180.001" y1="50.7658" x2="130.286" y2="136.329" gradientUnits="userSpaceOnUse">
<stop stop-color="#AFB6E5"/>
<stop offset="0.15" stop-color="#B8BFE9"/>
<stop offset="0.96" stop-color="#E5E9FF"/>
</linearGradient>
<linearGradient id="paint2_linear_3157_21548" x1="20984.7" y1="15493.6" x2="12544.9" y2="14936.7" gradientUnits="userSpaceOnUse">
<stop stop-color="#AFB6E5"/>
<stop offset="0.14" stop-color="#B6BCE8"/>
<stop offset="0.35" stop-color="#C8CDF1"/>
<stop offset="0.58" stop-color="#E5E9FF"/>
<stop offset="0.95" stop-color="#F5F4FC"/>
<stop offset="1" stop-color="#F7F6FB"/>
</linearGradient>
<linearGradient id="paint3_linear_3157_21548" x1="3166.94" y1="2612.21" x2="3300.21" y2="2612.21" gradientUnits="userSpaceOnUse">
<stop stop-color="#273B98"/>
<stop offset="1" stop-color="#10054D"/>
</linearGradient>
<linearGradient id="paint4_linear_3157_21548" x1="3827.92" y1="1166.92" x2="3758.15" y2="1397.44" gradientUnits="userSpaceOnUse">
<stop stop-color="#AFB6E5"/>
<stop offset="0.14" stop-color="#B6BCE8"/>
<stop offset="0.35" stop-color="#C8CDF1"/>
<stop offset="0.58" stop-color="#E5E9FF"/>
<stop offset="0.95" stop-color="#F5F4FC"/>
<stop offset="1" stop-color="#F7F6FB"/>
</linearGradient>
<linearGradient id="paint5_linear_3157_21548" x1="3684.15" y1="1565.17" x2="3657.46" y2="1380.46" gradientUnits="userSpaceOnUse">
<stop stop-color="#AFB6E5"/>
<stop offset="0.14" stop-color="#B6BCE8"/>
<stop offset="0.35" stop-color="#C8CDF1"/>
<stop offset="0.58" stop-color="#E5E9FF"/>
<stop offset="0.95" stop-color="#F5F4FC"/>
<stop offset="1" stop-color="#F7F6FB"/>
</linearGradient>
<linearGradient id="paint6_linear_3157_21548" x1="7716.4" y1="15614.5" x2="11467.3" y2="15614.5" gradientUnits="userSpaceOnUse">
<stop stop-color="#AFB6E5"/>
<stop offset="0.14" stop-color="#B6BCE8"/>
<stop offset="0.35" stop-color="#C8CDF1"/>
<stop offset="0.58" stop-color="#E5E9FF"/>
<stop offset="0.95" stop-color="#F5F4FC"/>
<stop offset="1" stop-color="#F7F6FB"/>
</linearGradient>
<linearGradient id="paint7_linear_3157_21548" x1="2686.49" y1="9983.4" x2="142.191" y2="10940.9" gradientUnits="userSpaceOnUse">
<stop stop-color="#AFB6E5"/>
<stop offset="0.15" stop-color="#B8BFE9"/>
<stop offset="0.96" stop-color="#E5E9FF"/>
</linearGradient>
<linearGradient id="paint8_linear_3157_21548" x1="16438.1" y1="18760.1" x2="8602.07" y2="18113.2" gradientUnits="userSpaceOnUse">
<stop stop-color="#AFB6E5"/>
<stop offset="0.14" stop-color="#B6BCE8"/>
<stop offset="0.35" stop-color="#C8CDF1"/>
<stop offset="0.58" stop-color="#E5E9FF"/>
<stop offset="0.95" stop-color="#F5F4FC"/>
<stop offset="1" stop-color="#F7F6FB"/>
</linearGradient>
<linearGradient id="paint9_linear_3157_21548" x1="2825.79" y1="1513.27" x2="2756.04" y2="1743.81" gradientUnits="userSpaceOnUse">
<stop stop-color="#AFB6E5"/>
<stop offset="0.14" stop-color="#B6BCE8"/>
<stop offset="0.35" stop-color="#C8CDF1"/>
<stop offset="0.58" stop-color="#E5E9FF"/>
<stop offset="0.95" stop-color="#F5F4FC"/>
<stop offset="1" stop-color="#F7F6FB"/>
</linearGradient>
<linearGradient id="paint10_linear_3157_21548" x1="2713.61" y1="1983.99" x2="2671.84" y2="1759.34" gradientUnits="userSpaceOnUse">
<stop stop-color="#AFB6E5"/>
<stop offset="0.14" stop-color="#B6BCE8"/>
<stop offset="0.35" stop-color="#C8CDF1"/>
<stop offset="0.58" stop-color="#E5E9FF"/>
<stop offset="0.95" stop-color="#F5F4FC"/>
<stop offset="1" stop-color="#F7F6FB"/>
</linearGradient>
<linearGradient id="paint11_linear_3157_21548" x1="3592.21" y1="17381.6" x2="7343.07" y2="17381.6" gradientUnits="userSpaceOnUse">
<stop stop-color="#AFB6E5"/>
<stop offset="0.14" stop-color="#B6BCE8"/>
<stop offset="0.35" stop-color="#C8CDF1"/>
<stop offset="0.58" stop-color="#E5E9FF"/>
<stop offset="0.95" stop-color="#F5F4FC"/>
<stop offset="1" stop-color="#F7F6FB"/>
</linearGradient>
<linearGradient id="paint12_linear_3157_21548" x1="1474.06" y1="9734.9" x2="93.7896" y2="10510.7" gradientUnits="userSpaceOnUse">
<stop stop-color="#AFB6E5"/>
<stop offset="0.15" stop-color="#B8BFE9"/>
<stop offset="0.96" stop-color="#E5E9FF"/>
</linearGradient>
<linearGradient id="paint13_linear_3157_21548" x1="12432" y1="19923.3" x2="4626.04" y2="19116.4" gradientUnits="userSpaceOnUse">
<stop stop-color="#AFB6E5"/>
<stop offset="0.14" stop-color="#B6BCE8"/>
<stop offset="0.35" stop-color="#C8CDF1"/>
<stop offset="0.58" stop-color="#E5E9FF"/>
<stop offset="0.95" stop-color="#F5F4FC"/>
<stop offset="1" stop-color="#F7F6FB"/>
</linearGradient>
<linearGradient id="paint14_linear_3157_21548" x1="1821.87" y1="1859.33" x2="1752.01" y2="2090.04" gradientUnits="userSpaceOnUse">
<stop stop-color="#AFB6E5"/>
<stop offset="0.14" stop-color="#B6BCE8"/>
<stop offset="0.35" stop-color="#C8CDF1"/>
<stop offset="0.58" stop-color="#E5E9FF"/>
<stop offset="0.95" stop-color="#F5F4FC"/>
<stop offset="1" stop-color="#F7F6FB"/>
</linearGradient>
<linearGradient id="paint15_linear_3157_21548" x1="1733.06" y1="2338.3" x2="1678.07" y2="2129.52" gradientUnits="userSpaceOnUse">
<stop stop-color="#AFB6E5"/>
<stop offset="0.14" stop-color="#B6BCE8"/>
<stop offset="0.35" stop-color="#C8CDF1"/>
<stop offset="0.58" stop-color="#E5E9FF"/>
<stop offset="0.95" stop-color="#F5F4FC"/>
<stop offset="1" stop-color="#F7F6FB"/>
</linearGradient>
<radialGradient id="paint16_radial_3157_21548" cx="0" cy="0" r="1" gradientUnits="userSpaceOnUse" gradientTransform="translate(2259.14 2341.65) scale(103.877 214.945)">
<stop stop-color="#F36DD4"/>
<stop offset="0.11" stop-color="#BD55A5"/>
<stop offset="0.23" stop-color="#8B3E79"/>
<stop offset="0.36" stop-color="#602B54"/>
<stop offset="0.48" stop-color="#3E1C36"/>
<stop offset="0.61" stop-color="#230F1E"/>
<stop offset="0.73" stop-color="#0F070D"/>
<stop offset="0.86" stop-color="#040203"/>
<stop offset="1"/>
</radialGradient>
</defs>
</svg>
