<svg width="254" height="252" viewBox="0 0 254 252" fill="none" xmlns="http://www.w3.org/2000/svg">
<g clip-path="url(#clip0_2588_21308)">
<path d="M37.1996 232.584C86.7952 258.502 167.211 258.502 216.806 232.584C266.402 206.665 266.402 164.699 216.806 138.804C167.211 112.908 86.7952 112.885 37.1996 138.804C-12.396 164.722 -12.396 206.688 37.1996 232.584Z" fill="#EDEDED"/>
<path opacity="0.5" d="M171.677 212.36C184.691 212.36 195.241 206.271 195.241 198.761C195.241 191.25 184.691 185.162 171.677 185.162C158.662 185.162 148.112 191.25 148.112 198.761C148.112 206.271 158.662 212.36 171.677 212.36Z" fill="#C7C4C4"/>
<path opacity="0.5" d="M214.737 188.889C226.249 188.889 235.582 183.504 235.582 176.862C235.582 170.22 226.249 164.836 214.737 164.836C203.225 164.836 193.893 170.22 193.893 176.862C193.893 183.504 203.225 188.889 214.737 188.889Z" fill="#C7C4C4"/>
<path d="M27.0281 205.064C26.665 205.26 19.8763 207.19 17.3637 203.866C14.851 200.543 19.0234 195.376 16.6606 193.47C14.2978 191.563 7.69928 193.47 6.10872 189.467C4.51816 185.464 9.23222 183.707 6.58128 179.675C4.91004 177.129 0.242085 175.724 0.455312 173.34C0.766509 169.884 7.14604 168.939 12.7245 172.654C18.303 176.369 20.8963 173.322 22.6713 173.075C24.4463 172.827 28.2556 173.374 28.1288 179.583C28.002 185.792 27.0281 205.064 27.0281 205.064Z" fill="#1C386A"/>
<path d="M27.4778 196.236C27.3901 196.235 27.3055 196.204 27.239 196.147C27.1724 196.09 27.1284 196.011 27.1147 195.925C25.1726 184.14 11.4684 174.55 4.33969 172.494C4.24616 172.465 4.16757 172.4 4.12033 172.314C4.07308 172.229 4.06083 172.128 4.08612 172.033C4.09997 171.987 4.12292 171.943 4.15363 171.905C4.18434 171.868 4.22221 171.836 4.26506 171.813C4.30792 171.79 4.3549 171.776 4.40332 171.771C4.45173 171.767 4.50062 171.771 4.54716 171.786C11.8315 173.888 25.8699 183.714 27.8466 195.804C27.8616 195.9 27.8381 195.999 27.781 196.079C27.7239 196.159 27.6377 196.213 27.5411 196.23L27.4778 196.236Z" fill="white"/>
<path d="M11.3183 186.367C11.2545 186.367 11.1918 186.351 11.1362 186.32C11.0807 186.288 11.0342 186.243 11.0013 186.189C10.9522 186.104 10.9379 186.004 10.9616 185.909C10.9853 185.815 11.045 185.733 11.1281 185.682C11.3529 185.549 16.6259 182.468 21.8183 183.908C21.8653 183.92 21.9094 183.942 21.9479 183.972C21.9865 184.002 22.0187 184.039 22.0428 184.081C22.067 184.124 22.0824 184.17 22.0884 184.219C22.0944 184.267 22.0907 184.316 22.0776 184.363C22.0657 184.41 22.0442 184.455 22.0146 184.494C21.985 184.533 21.9478 184.565 21.9053 184.589C21.8627 184.614 21.8158 184.629 21.7671 184.635C21.7185 184.64 21.6693 184.636 21.6223 184.622C16.7354 183.268 11.5603 186.287 11.5085 186.315C11.4511 186.35 11.3852 186.368 11.3183 186.367Z" fill="white"/>
<path d="M125.355 153.618L123.568 152.777C123.568 152.777 122.992 146.332 123.597 142.03C124.75 134.018 130.346 127.112 135.33 126.3C141.75 125.257 140.609 131.161 136.938 133.713C131.06 137.802 126.507 143.982 125.355 153.618Z" fill="#1C386A"/>
<path d="M124.675 151.051H124.721C124.802 151.035 124.873 150.989 124.92 150.921C124.966 150.853 124.984 150.769 124.969 150.688C123.724 144.105 129.147 131.9 136.402 128.432C136.479 128.396 136.538 128.332 136.566 128.252C136.595 128.173 136.591 128.085 136.555 128.009C136.519 127.933 136.454 127.874 136.375 127.845C136.295 127.816 136.208 127.821 136.131 127.856C128.64 131.427 123.073 143.984 124.352 150.792C124.365 150.867 124.404 150.935 124.464 150.983C124.523 151.03 124.598 151.055 124.675 151.051Z" fill="white"/>
<path d="M121.568 152.779C121.436 151.823 121.378 150.429 121.361 150.083C121.286 148.869 121.465 147.653 121.885 146.512C122.437 145.004 123.489 143.73 124.865 142.901C125.614 142.469 126.49 142.158 126.974 141.443C127.325 140.785 127.513 140.052 127.521 139.307C127.671 138.103 128.046 136.83 129.014 136.093C129.982 135.355 131.319 135.338 132.472 135.465C134.201 135.649 135.82 135.88 137.433 135.091C138.723 134.406 140.055 133.806 141.421 133.293C143.15 132.717 147.017 131.854 147.83 134.278C147.922 134.613 147.938 134.964 147.877 135.306C147.817 135.648 147.68 135.972 147.478 136.254C147.07 136.816 146.58 137.315 146.026 137.734L143.323 139.981C143.001 140.217 142.722 140.507 142.499 140.839C141.975 141.737 142.349 142.872 142.234 143.903C142.161 144.427 141.974 144.93 141.688 145.375C141.401 145.821 141.021 146.199 140.574 146.483C139.673 147.047 138.614 147.304 137.555 147.215C136.143 147.117 133.837 146.034 132.973 147.699C132.734 148.266 132.593 148.87 132.558 149.484C132.524 150.101 132.325 150.698 131.982 151.212C131.405 151.915 130.443 152.116 129.544 152.208C128.285 152.231 127.034 152.425 125.827 152.784C125.343 152.975 125.037 153.591 124.755 154C123.873 153.706 122.905 153.355 121.568 152.779Z" fill="#1C386A"/>
<path d="M122.358 152.296C122.314 152.307 122.269 152.307 122.225 152.296C122.154 152.266 122.097 152.21 122.067 152.139C122.036 152.068 122.035 151.987 122.064 151.915C125.695 142.901 137.278 136.445 144.182 134.302C144.219 134.291 144.257 134.287 144.296 134.29C144.334 134.294 144.371 134.305 144.405 134.324C144.439 134.342 144.469 134.367 144.493 134.397C144.517 134.427 144.535 134.461 144.545 134.498C144.567 134.571 144.559 134.65 144.524 134.718C144.488 134.786 144.428 134.837 144.355 134.861C137.56 136.969 126.161 143.305 122.606 152.14C122.581 152.185 122.545 152.223 122.502 152.25C122.459 152.277 122.409 152.293 122.358 152.296Z" fill="white"/>
<path d="M142.493 156.349C142.554 157.47 142.878 158.56 143.44 159.532C144.002 160.504 144.785 161.33 145.726 161.942C146.273 162.301 146.936 162.441 147.582 162.333C147.478 162.441 147.36 162.534 147.23 162.61L148.008 162.166L148.049 162.138L148.164 162.063C148.216 162.025 148.264 161.983 148.308 161.936L148.395 161.85C148.395 161.821 148.446 161.792 148.469 161.757C148.577 161.607 148.666 161.445 148.735 161.274L148.792 161.118C148.795 161.091 148.795 161.064 148.792 161.038C148.806 160.992 148.818 160.946 148.827 160.899C148.887 160.635 148.916 160.364 148.913 160.093C148.853 158.974 148.529 157.885 147.968 156.914C147.407 155.943 146.625 155.118 145.686 154.506C145.252 154.232 144.753 154.079 144.239 154.062H144.038L143.853 154.097L143.744 154.126H143.675C143.629 154.138 143.584 154.155 143.542 154.178L143.421 154.241L142.747 154.627C142.856 154.571 142.973 154.531 143.093 154.506C142.66 155.019 142.445 155.68 142.493 156.349ZM147.813 162.259H147.87H147.813Z" fill="#1C386A"/>
<path d="M75.4075 193.511L79.9659 201.425L80.7382 200.975L147.231 162.61C147.36 162.534 147.478 162.441 147.582 162.333C148 161.825 148.206 161.175 148.158 160.519C148.096 159.399 147.771 158.309 147.209 157.337C146.648 156.366 145.865 155.54 144.925 154.926C144.49 154.656 143.991 154.505 143.479 154.488C143.341 154.486 143.204 154.502 143.07 154.535C142.95 154.559 142.833 154.6 142.724 154.656L142.666 154.684L75.4075 193.511Z" fill="#EBEBEB"/>
<path d="M77.6954 193.735C75.9089 192.704 74.4624 193.539 74.4624 195.595C74.5229 196.716 74.8472 197.807 75.409 198.778C75.9708 199.75 76.7541 200.576 77.6954 201.188C79.4761 202.219 80.9226 201.384 80.9226 199.322C80.8619 198.203 80.5381 197.113 79.9773 196.143C79.4166 195.172 78.6348 194.347 77.6954 193.735Z" fill="#27DEBF"/>
<path d="M70.751 198.534C70.7733 198.5 70.8005 198.469 70.8317 198.442L74.9522 193.909L74.9868 193.874L75.0617 193.794L75.102 193.748C75.6783 193.172 76.6234 193.137 77.6838 193.748C78.6232 194.36 79.405 195.185 79.9657 196.156C80.5265 197.126 80.8503 198.215 80.911 199.335C80.911 200.533 80.4212 201.31 79.6662 201.558H79.6201C79.5427 201.581 79.4637 201.598 79.3839 201.61H79.332L73.3616 202.912C72.998 202.972 72.6249 202.892 72.3185 202.687C71.7807 202.338 71.3329 201.867 71.0115 201.313C70.69 200.758 70.504 200.136 70.4686 199.496C70.4494 199.152 70.5491 198.813 70.751 198.534Z" fill="#E0E0E0"/>
<path d="M123.568 169.136L123.678 169.073C123.802 169.031 123.935 169.019 124.065 169.038C124.195 169.057 124.319 169.107 124.427 169.182C124.762 169.4 125.041 169.693 125.241 170.038C125.441 170.383 125.557 170.771 125.579 171.17C125.59 171.298 125.571 171.427 125.524 171.546C125.477 171.666 125.403 171.774 125.308 171.861L125.164 171.941L76.0817 200.262L72.8545 198.396L123.568 169.136Z" fill="#455A64"/>
<path d="M80.6346 197.623L76.0761 200.256L72.8489 198.389L79.0209 194.824C79.748 195.635 80.2976 196.588 80.6346 197.623Z" fill="#37474F"/>
<path d="M69.1259 200.682L72.8545 196.553L72.9525 196.443C73.3674 196.029 74.0359 195.994 74.7966 196.443C75.4657 196.873 76.0235 197.455 76.4241 198.142C76.8248 198.829 77.057 199.601 77.1018 200.394C77.1018 201.235 76.7618 201.783 76.2316 201.961H76.197L76.0472 201.996L70.5494 203.205C70.3484 203.23 70.1449 203.186 69.9731 203.078C69.6709 202.88 69.4195 202.614 69.2393 202.301C69.0591 201.988 68.9551 201.636 68.9358 201.276C68.9184 201.061 68.9867 200.847 69.1259 200.682Z" fill="#0D2655"/>
<path d="M68.9185 201.276C68.9379 201.637 69.0419 201.988 69.2221 202.301C69.4023 202.614 69.6537 202.881 69.9559 203.079C70.1269 203.188 70.3317 203.231 70.5322 203.2L73.2984 202.595C73.7363 202.503 74.0245 202.094 74.0245 201.443C73.9941 200.866 73.828 200.305 73.5396 199.805C73.2512 199.304 72.8487 198.879 72.3648 198.563C72.1758 198.412 71.9411 198.33 71.6991 198.33C71.4572 198.33 71.2225 198.412 71.0335 198.563L70.9586 198.644L69.103 200.683C69.0339 200.764 68.982 200.859 68.9504 200.961C68.9187 201.063 68.9079 201.17 68.9185 201.276Z" fill="#1C386A"/>
<path opacity="0.1" d="M69.9731 200.676C69.3968 200.348 68.9358 200.613 68.9358 201.252C68.9552 201.613 69.0592 201.964 69.2394 202.277C69.4195 202.591 69.6709 202.857 69.9731 203.055C70.5494 203.384 71.0104 203.113 71.0104 202.45C70.9867 202.095 70.8806 201.749 70.7006 201.441C70.5206 201.134 70.2716 200.872 69.9731 200.676Z" fill="black"/>
<path d="M135.768 162.079C135.898 162.018 136.042 161.994 136.185 162.008C136.328 162.022 136.465 162.074 136.581 162.159C136.915 162.375 137.193 162.666 137.393 163.01C137.593 163.353 137.71 163.738 137.733 164.135C137.749 164.277 137.727 164.42 137.668 164.55C137.609 164.679 137.516 164.791 137.399 164.872L125.297 171.841C125.392 171.754 125.465 171.647 125.512 171.527C125.559 171.407 125.578 171.279 125.568 171.15C125.546 170.752 125.43 170.364 125.23 170.019C125.029 169.673 124.75 169.38 124.415 169.163C124.308 169.087 124.184 169.038 124.054 169.019C123.924 169 123.791 169.012 123.666 169.054L135.768 162.079Z" fill="#FAFAFA"/>
<path d="M135.434 162.817C135.457 163.214 135.574 163.601 135.774 163.945C135.974 164.289 136.253 164.582 136.587 164.798C136.696 164.898 136.834 164.961 136.981 164.977C137.128 164.994 137.277 164.963 137.406 164.889C137.534 164.815 137.636 164.702 137.695 164.567C137.755 164.432 137.771 164.281 137.739 164.136C137.716 163.739 137.599 163.354 137.399 163.011C137.199 162.667 136.92 162.376 136.587 162.16C136.478 162.061 136.34 161.999 136.194 161.983C136.047 161.967 135.899 161.997 135.771 162.07C135.643 162.143 135.542 162.254 135.481 162.389C135.421 162.523 135.404 162.673 135.434 162.817Z" fill="#F5F5F5"/>
<path d="M137.975 157.962H138.016L138.062 157.933L142.828 155.186L142.943 155.122C143.266 154.997 143.616 154.954 143.96 154.997C144.304 155.04 144.632 155.168 144.914 155.37C145.756 155.923 146.456 156.666 146.956 157.54C147.457 158.414 147.744 159.393 147.795 160.398C147.834 160.761 147.775 161.128 147.624 161.46C147.473 161.792 147.236 162.078 146.937 162.288L142.113 165.069H142.084C141.757 165.207 141.4 165.258 141.047 165.219C140.694 165.18 140.357 165.051 140.067 164.845C139.226 164.29 138.527 163.546 138.026 162.671C137.526 161.797 137.238 160.817 137.186 159.811C137.15 159.461 137.204 159.108 137.342 158.785C137.48 158.461 137.698 158.178 137.975 157.962Z" fill="#1C386A"/>
<path opacity="0.4" d="M140.102 158.094C138.5 157.167 137.22 157.921 137.22 159.77C137.272 160.776 137.56 161.756 138.061 162.63C138.561 163.505 139.261 164.249 140.102 164.804C141.71 165.731 143.012 164.977 143.012 163.128C142.957 162.119 142.665 161.138 142.16 160.263C141.654 159.388 140.949 158.645 140.102 158.094Z" fill="black"/>
<path d="M67.5989 202.415L69.5698 201.229C69.6301 201.196 69.6986 201.181 69.7671 201.187C69.8355 201.192 69.9011 201.216 69.9559 201.258C70.1129 201.357 70.2436 201.492 70.3369 201.653C70.4302 201.813 70.4834 201.994 70.4918 202.179C70.4973 202.245 70.4858 202.312 70.4586 202.372C70.4314 202.433 70.3893 202.485 70.3362 202.525L68.3711 203.711C68.2574 203.771 68.1308 203.803 68.0023 203.804C67.802 203.804 67.61 203.724 67.4684 203.583C67.3268 203.441 67.2473 203.249 67.2473 203.049C67.2475 202.922 67.2798 202.798 67.3413 202.687C67.4028 202.576 67.4914 202.483 67.5989 202.415Z" fill="#455A64"/>
<path d="M67.4836 202.502L67.5874 202.415C67.6456 202.398 67.707 202.394 67.767 202.404C67.8269 202.414 67.8838 202.437 67.9332 202.473C68.0891 202.573 68.2187 202.709 68.311 202.869C68.4033 203.03 68.4555 203.21 68.4633 203.395C68.4701 203.46 68.4598 203.525 68.4335 203.585C68.4073 203.644 68.3659 203.696 68.3135 203.735H68.2732H68.2328C68.156 203.766 68.0734 203.779 67.9908 203.775C67.7906 203.775 67.5985 203.696 67.457 203.554C67.3154 203.413 67.2358 203.221 67.2358 203.02C67.248 202.822 67.3369 202.636 67.4836 202.502Z" fill="#263238"/>
<path d="M29.4426 207.674L27.4314 206.522C27.0966 206.305 26.8178 206.012 26.6175 205.666C26.4173 205.321 26.3012 204.934 26.2788 204.535V55.6057C26.3008 55.2071 26.4166 54.8194 26.6169 54.4741C26.8172 54.1288 27.0963 53.8357 27.4314 53.6186L119.868 0.277645C120.225 0.0951602 120.62 0 121.021 0C121.422 0 121.817 0.0951602 122.174 0.277645L124.185 1.42959C124.52 1.64704 124.798 1.94026 124.999 2.2855C125.199 2.63074 125.315 3.01828 125.337 3.4167V152.346C125.316 152.745 125.2 153.133 125 153.478C124.8 153.824 124.52 154.117 124.185 154.333L31.7363 207.674C31.3813 207.856 30.9882 207.95 30.5895 207.95C30.1907 207.95 29.7977 207.856 29.4426 207.674Z" fill="#204079"/>
<path opacity="0.4" d="M125.297 3.23763C125.222 2.66165 124.721 2.4255 124.145 2.75957L31.7365 56.1005C31.3994 56.3132 31.1202 56.6061 30.9239 56.9529L26.6133 54.4705C26.8096 54.1237 27.0887 53.8308 27.4258 53.618L119.869 0.277122C120.225 0.0937247 120.62 -0.00195312 121.021 -0.00195312C121.422 -0.00195312 121.817 0.0937247 122.174 0.277122L124.191 1.42907C124.494 1.63365 124.75 1.90103 124.941 2.21307C125.132 2.52511 125.253 2.87452 125.297 3.23763Z" fill="white"/>
<path opacity="0.15" d="M31.5347 207.766C31.5119 207.77 31.4884 207.77 31.4656 207.766L31.3503 207.806H31.3042C31.235 207.806 31.1659 207.841 31.091 207.858C30.6341 207.944 30.1624 207.906 29.7252 207.749C29.6382 207.716 29.5535 207.677 29.4716 207.633L27.4546 206.481C27.1207 206.263 26.8426 205.969 26.6425 205.624C26.4424 205.279 26.3258 204.892 26.302 204.494V55.6051C26.3151 55.1992 26.4301 54.8031 26.6363 54.4531L30.9469 56.9356C30.7337 57.2828 30.6163 57.6803 30.6069 58.0875V207.017C30.5944 207.233 30.6576 207.447 30.7855 207.622C30.8565 207.711 30.9524 207.778 31.0612 207.813C31.17 207.847 31.2866 207.849 31.3964 207.818C31.4441 207.805 31.4904 207.788 31.5347 207.766Z" fill="black"/>
<path d="M96.4481 27.6995L96.281 27.5958L94.3735 26.5015C93.6798 26.1149 92.9258 25.8482 92.1432 25.7124C91.8148 25.6375 91.5208 25.5511 91.2615 25.4647C90.9737 25.3706 90.6926 25.2571 90.4201 25.1249L90.5584 24.9463L88.4146 23.6965C88.2337 23.5956 88.0398 23.52 87.8383 23.4719C87.0258 23.2703 85.8098 23.7426 84.5996 23.6043C84.1591 23.5613 83.7335 23.4219 83.353 23.1959C82.9726 22.9699 82.6465 22.663 82.3982 22.2969C81.6605 21.3062 81.2168 19.5725 80.5656 18.1326L81.1419 17.2974C81.0842 17.2614 81.0246 17.2287 80.9632 17.1995L78.9865 16.0476C78.653 15.8513 78.2729 15.7478 77.8858 15.748C77.1471 15.787 76.4316 16.0194 75.8112 16.4219C71.0798 19.1578 70.9185 25.6375 69.2126 29.9112C67.5068 34.185 65.0922 35.5155 63.7782 37.3528C62.4643 39.1902 62.3721 40.5495 59.4618 44.5583C56.5515 48.567 56.4363 49.5462 56.4363 50.318V56.2908L58.5916 57.5349L97.3298 35.1699L96.4481 27.6995ZM60.9256 50.7384C60.4242 51.0207 60.0093 50.6348 60.0093 49.8572C60.0045 49.4854 60.0845 49.1173 60.2432 48.781C60.402 48.4447 60.6354 48.1489 60.9256 47.9162C61.427 47.6282 61.8361 48.0256 61.8361 48.8032C61.8403 49.1719 61.7605 49.5367 61.6027 49.8699C61.445 50.2032 61.2134 50.4963 60.9256 50.7269V50.7384ZM77.9434 33.9719C77.6993 34.1499 77.417 34.2687 77.1189 34.3188C76.8209 34.369 76.5153 34.3491 76.2262 34.2608C75.9372 34.1725 75.6727 34.0183 75.4536 33.8101C75.2345 33.602 75.0669 33.3458 74.964 33.0618C73.4599 33.3498 72.3419 31.9099 72.3419 29.4101C72.3419 26.4727 73.8921 23.2069 75.7996 22.101C76.0442 21.9231 76.3268 21.8046 76.6252 21.7548C76.9235 21.7051 77.2294 21.7254 77.5185 21.8143C77.8076 21.9031 78.072 22.0581 78.2908 22.2668C78.5096 22.4755 78.6768 22.7323 78.7791 23.0168C80.2832 22.7173 81.3954 24.1688 81.3954 26.6628C81.3954 29.5887 79.8567 32.8545 77.9434 33.9603V33.9719ZM90.812 33.488C90.3049 33.7818 89.8957 33.3901 89.8957 32.6126C89.8865 32.24 89.9645 31.8705 90.1236 31.5335C90.2827 31.1965 90.5185 30.9013 90.812 30.6715C91.3191 30.3778 91.7283 30.7694 91.7283 31.547C91.7353 31.9175 91.6562 32.2846 91.4972 32.6194C91.3382 32.9543 91.1036 33.2476 90.812 33.4765V33.488Z" fill="#455A64"/>
<path opacity="0.5" d="M60.7526 51.7924L56.586 49.3906C56.4911 49.6905 56.4444 50.0035 56.4477 50.3179V56.2908L58.603 57.5349L60.7526 56.2908V51.7924Z" fill="#37474F"/>
<path opacity="0.5" d="M65.0343 44.3403L67.1897 39.3696L63.7665 37.3652C62.7638 38.7533 62.4699 39.8765 61.1213 42.0825L65.0343 44.3403Z" fill="#37474F"/>
<path opacity="0.5" d="M73.65 34.403L73.9266 32.9516C72.9758 32.5541 72.3419 31.2697 72.3419 29.3978C72.3419 26.9038 73.4599 24.1795 74.964 22.7338L71.9788 21.0059C70.7109 23.8857 70.2499 27.3416 69.2011 29.9162C68.9821 30.4921 68.7458 30.9702 68.5095 31.431L73.65 34.403Z" fill="#37474F"/>
<path d="M96.4481 27.7002L96.281 27.5965C95.6467 27.3023 94.9791 27.0857 94.2928 26.9515C93.1664 26.7536 92.117 26.2472 91.2615 25.4885C91.0449 25.2929 90.8094 25.1192 90.5584 24.9701C90.3795 24.8639 90.185 24.7862 89.9821 24.7397C88.6797 24.4229 86.3054 25.8456 84.5996 23.6338C84.5792 23.6133 84.5617 23.5901 84.5477 23.5647C83.3548 21.9635 82.9168 18.381 81.1303 17.3269C81.0727 17.2909 81.0131 17.2582 80.9517 17.229C80.214 16.8834 79.2574 16.9468 77.9434 17.6956C73.2121 20.4314 73.0507 26.9111 71.3449 31.1849C69.6391 35.4586 67.2302 36.7891 65.9163 38.6264C64.6023 40.4638 64.5159 41.8231 61.5998 45.8319C58.6838 49.8407 58.5801 50.8256 58.5801 51.5916V57.5702L97.3183 35.2052V29.2035C97.3476 28.8936 97.2795 28.5823 97.1235 28.3129C96.9676 28.0435 96.7315 27.8293 96.4481 27.7002ZM63.0579 51.9833C62.5507 52.277 62.1416 51.8854 62.1416 51.102C62.1346 50.7307 62.2137 50.3627 62.3726 50.027C62.5316 49.6913 62.7661 49.3968 63.0579 49.1668C63.565 48.873 63.9684 49.2704 63.9684 50.048C63.9761 50.4189 63.8979 50.7865 63.7399 51.1222C63.582 51.4579 63.3485 51.7526 63.0579 51.9833ZM77.9262 33.9783C77.682 34.1564 77.3997 34.2751 77.1017 34.3253C76.8036 34.3754 76.498 34.3556 76.2089 34.2673C75.9199 34.179 75.6554 34.0247 75.4363 33.8166C75.2172 33.6085 75.0496 33.3523 74.9467 33.0683C74.6084 32.31 74.4468 31.4848 74.4742 30.655C74.4742 27.7233 76.0186 24.4517 77.9319 23.3516C78.1904 23.1969 78.4728 23.0859 78.7675 23.0233C80.2717 22.7238 81.3839 24.1753 81.3839 26.6692C81.3954 29.5894 79.8567 32.8552 77.9434 33.9611L77.9262 33.9783ZM92.9616 34.7041C92.4544 34.9978 92.0453 34.6061 92.0453 33.8343C92.0369 33.4628 92.1154 33.0944 92.2745 32.7584C92.4336 32.4225 92.6688 32.1282 92.9616 31.8991C93.4629 31.6053 93.8721 31.997 93.8721 32.7746C93.8793 33.1445 93.8009 33.5112 93.643 33.8459C93.485 34.1806 93.2518 34.4743 92.9616 34.7041Z" fill="#37474F"/>
<path d="M81.3952 26.6392C81.3952 29.5767 79.8565 32.8425 77.9374 33.9483C77.6933 34.1264 77.411 34.2451 77.1129 34.2953C76.8149 34.3454 76.5093 34.3256 76.2202 34.2373C75.9312 34.149 75.6667 33.9947 75.4476 33.7866C75.2285 33.5785 75.0609 33.3223 74.958 33.0383C75.252 32.9732 75.534 32.8624 75.7936 32.71C77.7012 31.6041 79.2514 28.3384 79.2514 25.4009C79.2764 24.5731 79.1149 23.7503 78.7788 22.9933C80.2829 22.7053 81.3952 24.151 81.3952 26.6392Z" fill="#263238"/>
<path d="M63.0578 51.983C62.5507 52.271 62.1415 51.8793 62.1415 51.1075C62.1345 50.7353 62.2136 50.3666 62.3725 50.0299C62.5314 49.6932 62.766 49.3978 63.0578 49.1665C63.5592 48.8728 63.9684 49.2759 63.9684 50.0477C63.9747 50.4184 63.896 50.7856 63.7381 51.1211C63.5803 51.4566 63.3475 51.7515 63.0578 51.983Z" fill="#263238"/>
<path d="M92.9614 34.7033C92.4543 34.9913 92.0451 34.6054 92.0451 33.8278C92.0381 33.4556 92.1172 33.0868 92.2761 32.7502C92.435 32.4135 92.6695 32.118 92.9614 31.8868C93.4628 31.5988 93.8719 31.9962 93.8719 32.7738C93.8778 33.1436 93.7988 33.5098 93.641 33.8443C93.4831 34.1788 93.2506 34.4726 92.9614 34.7033Z" fill="#263238"/>
<path d="M37.7355 70.0329L118.174 23.6152C118.388 23.5073 118.624 23.4512 118.863 23.4512C119.102 23.4512 119.338 23.5073 119.551 23.6152L120.329 24.0644C120.529 24.1953 120.696 24.3715 120.815 24.5787C120.934 24.7858 121.003 25.0181 121.015 25.2567V147.905C121.004 148.143 120.935 148.376 120.816 148.583C120.697 148.791 120.53 148.967 120.329 149.097L39.8908 195.515C39.6773 195.622 39.4414 195.679 39.2022 195.679C38.9629 195.679 38.727 195.622 38.5135 195.515L37.7355 195.065C37.5341 194.935 37.3664 194.76 37.2462 194.552C37.126 194.345 37.0567 194.112 37.0439 193.873V71.2252C37.0576 70.9861 37.1273 70.7537 37.2474 70.5466C37.3676 70.3395 37.5347 70.1635 37.7355 70.0329Z" fill="#F5F5F5"/>
<path d="M120.992 25.0493C120.906 24.7671 120.641 24.675 120.329 24.8593L39.8908 71.277C39.6836 71.3998 39.5141 71.5771 39.4009 71.7896L37.2456 70.5513C37.362 70.3396 37.5306 70.1611 37.7355 70.0329L118.174 23.6152C118.388 23.5073 118.623 23.4512 118.863 23.4512C119.102 23.4512 119.338 23.5073 119.551 23.6152L120.329 24.0644C120.5 24.176 120.647 24.3207 120.76 24.4899C120.874 24.659 120.953 24.8493 120.992 25.0493Z" fill="#FAFAFA"/>
<path d="M39.7238 195.589C39.6413 195.619 39.5565 195.642 39.4702 195.658H39.3377C39.1978 195.672 39.0568 195.672 38.917 195.658C38.8309 195.641 38.7462 195.618 38.6634 195.589L38.5078 195.514L37.7356 195.071C37.5359 194.939 37.3698 194.763 37.2507 194.556C37.1316 194.349 37.0628 194.117 37.0498 193.878V71.2247C37.0539 70.9866 37.1215 70.754 37.2457 70.5508L39.4011 71.7891C39.2784 71.9954 39.2091 72.229 39.1994 72.4688V195.117C39.1994 195.491 39.4299 195.675 39.7238 195.589Z" fill="#E0E0E0"/>
<path d="M102.897 40.9875L100.753 39.7492C100.416 39.5843 100.045 39.504 99.6702 39.515C99.2956 39.526 98.9294 39.6282 98.6032 39.8126C96.1021 40.9127 95.0187 41.4138 93.7278 41.9552L92.7942 42.3296C92.2871 42.5311 91.2786 42.3584 91.5898 40.6016L94.915 31.6568H94.8631L92.7596 30.4415C92.6529 30.3744 92.533 30.3312 92.4081 30.3147C92.3447 30.3147 92.264 30.3147 92.1776 30.3147C90.8175 30.2802 90.4487 21.5081 90.4199 21.2374L90.3219 21.1856L88.2415 19.9875C87.88 19.7826 87.4699 19.6791 87.0544 19.688C86.359 19.7201 85.6813 19.9176 85.0777 20.264C81.8101 21.9919 78.508 27.0663 77.7012 31.6337C77.194 34.5136 74.2953 38.9486 72.6183 40.5844C70.9413 42.2201 70.826 43.5794 70.826 43.5794L69.5236 50.9634L69.1029 53.3307C68.7975 55.0931 66.9879 56.7865 66.9879 56.7865L60.2396 61.7744C56.0154 65.2764 54.8224 68.8186 54.0156 73.196V73.2305C54.0156 73.3861 54.0156 73.4897 54.0905 73.5301C54.1017 73.5373 54.1147 73.5411 54.128 73.5411C54.1413 73.5411 54.1543 73.5373 54.1655 73.5301L55.0299 73.0405L101.456 46.2807C101.565 46.2062 101.658 46.1109 101.731 46.0002C101.803 45.8895 101.852 45.7656 101.877 45.6357C102.142 44.0402 102.914 41.0279 102.914 41.0279L102.897 40.9875ZM89.4748 27.4349C88.9734 30.2399 86.9506 33.3732 84.9394 34.4272C83.5505 35.1529 82.5362 34.7037 82.1962 33.425C81.9466 33.5227 81.6763 33.5559 81.4104 33.5217C81.1446 33.4875 80.8916 33.3869 80.6748 33.2292C80.0294 32.7223 85.9421 22.5737 86.4377 22.7983C86.6682 22.9196 86.8682 23.0914 87.0229 23.3009C87.1775 23.5103 87.2829 23.752 87.331 24.0078C88.9907 23.5067 89.9185 24.9121 89.4748 27.4349Z" fill="#455A64"/>
<path opacity="0.5" d="M60.7526 66.7045L57.3698 64.752C55.4104 67.3323 54.6209 70.0452 54.0388 73.1957V73.2303C54.0388 73.3858 54.0388 73.4895 54.1137 73.5298C54.1249 73.537 54.1379 73.5408 54.1512 73.5408C54.1645 73.5408 54.1775 73.537 54.1887 73.5298L56.8569 71.4217L60.7526 66.7045Z" fill="#37474F"/>
<path opacity="0.5" d="M68.8782 54.0143L73.6499 56.7617L75.7994 44.3379L71.5003 41.8555C71.158 42.3467 70.9279 42.9071 70.826 43.497L69.5236 50.881L69.1029 53.2482C69.0555 53.5109 68.9802 53.7677 68.8782 54.0143Z" fill="#37474F"/>
<path opacity="0.5" d="M79.9604 25.6191C78.8731 27.4528 78.109 29.4595 77.7013 31.5517C77.3587 33.0346 76.7912 34.4564 76.0186 35.7678L80.1045 38.1293L82.1388 33.4351C81.8964 33.5225 81.6362 33.5494 81.3811 33.5132C81.1259 33.4771 80.8835 33.3791 80.675 33.2278C80.3407 32.9628 81.7469 30.1578 83.251 27.5199L79.9604 25.6191Z" fill="#37474F"/>
<path d="M102.926 41.0049H102.897C102.56 40.8456 102.189 40.7689 101.817 40.7809C101.444 40.7929 101.079 40.8934 100.753 41.074C97.6871 42.4275 96.7593 42.871 94.9382 43.591C94.4541 43.7868 93.4687 43.6313 93.728 41.9725C93.7252 41.9342 93.7252 41.8957 93.728 41.8573L94.1487 39.4958L95.3013 33.0622C95.3013 33.0622 95.5664 32.0485 94.8979 31.6683H94.846C94.6781 31.5908 94.495 31.5514 94.3101 31.5531C93.9185 31.5061 93.5425 31.3713 93.2103 31.1589C92.878 30.9465 92.598 30.6619 92.391 30.3263C92.0319 29.7916 91.7832 29.1907 91.6595 28.5587C91.5358 27.9267 91.5396 27.2764 91.6706 26.6458C92.1605 23.8869 91.6245 21.9517 90.4028 21.2317L90.3048 21.1741C89.5153 20.7536 88.4549 20.8227 87.2159 21.4736C83.9426 23.2015 80.6404 28.2758 79.8394 32.8433C79.3265 35.7232 76.4278 40.1639 74.7508 41.794C73.0738 43.424 72.9643 44.789 72.9643 44.789L71.7022 52.1327L71.2873 54.4942C70.9761 56.2567 69.1665 57.95 69.1665 57.95L62.4239 63.0071C59.733 65.1478 57.7901 68.0857 56.8742 71.399C56.8742 71.399 54.3443 73.3631 54.1887 73.5186L55.0532 73.029L101.612 46.2808C101.612 46.2808 102.142 45.987 102.263 45.9122C102.384 45.8373 104.257 44.069 104.257 44.069C104.153 42.56 103.704 41.4714 102.926 41.0049ZM89.475 27.4349C88.9736 30.2399 86.9508 33.3732 84.9396 34.4272C83.5507 35.153 82.5364 34.7037 82.1964 33.4251C82.0446 32.7073 82.0446 31.9657 82.1964 31.2479C82.6978 28.4371 84.7263 25.3096 86.7376 24.2613C86.922 24.1603 87.1148 24.0755 87.3139 24.0079C88.9909 23.5068 89.9187 24.9122 89.475 27.4349Z" fill="#37474F"/>
<path d="M89.4748 27.4339C88.9735 30.2389 86.9507 33.3722 84.9394 34.4263C83.5506 35.152 82.5363 34.7027 82.1963 33.4241C82.3944 33.3587 82.5871 33.2778 82.7726 33.1822C84.7896 32.1281 86.8066 28.9948 87.308 26.1841C87.4593 25.4662 87.4593 24.7248 87.308 24.0069C88.9908 23.5058 89.9186 24.9112 89.4748 27.4339Z" fill="#263238"/>
<path d="M87.5328 24.1281C87.7212 24.1167 87.9094 24.1542 88.079 24.237C88.2487 24.3197 88.394 24.4449 88.501 24.6004C89.3366 25.7869 88.5355 28.805 88.1898 29.7841C87.7115 31.1262 84.588 34.2825 83.7293 34.2825C83.4448 34.2356 83.1729 34.1312 82.9301 33.9757C82.6873 33.8203 82.4789 33.6169 82.3174 33.3782C82.1756 32.6865 82.1756 31.9733 82.3174 31.2817C82.8072 28.5055 84.8127 25.4182 86.7894 24.37C86.9655 24.2771 87.1485 24.1982 87.3369 24.1338H87.527L87.5328 24.1281ZM87.527 24.0014H87.3138C87.1147 24.0689 86.9219 24.1537 86.7375 24.2548C84.7263 25.3031 82.7035 28.4306 82.1964 31.2413C82.0446 31.9591 82.0446 32.7007 82.1964 33.4185C82.3699 33.6779 82.5951 33.8987 82.8578 34.0672C83.1206 34.2357 83.4153 34.3482 83.7235 34.3977C84.6571 34.3977 87.7979 31.2125 88.2993 29.7899C88.8006 28.3672 89.8898 23.9668 87.5155 23.9668L87.527 24.0014Z" fill="#263238"/>
<path d="M54.1655 73.5354L101.583 46.2918L102.24 45.929C102.355 45.8598 104.228 44.0801 104.228 44.0801L56.8453 71.4158C56.8453 71.4158 53.9754 73.639 54.1655 73.5354Z" fill="#263238"/>
<path d="M47.8091 92.6401V93.7172C47.8091 94.2932 48.224 94.5409 48.7311 94.2471L111.466 58.0414C111.734 57.8671 111.956 57.6324 112.116 57.3563C112.277 57.0802 112.37 56.7703 112.388 56.4517V55.3689C112.388 54.7929 111.973 54.5453 111.466 54.839L48.7311 91.0505C48.4634 91.2245 48.2404 91.4591 48.0802 91.7353C47.92 92.0114 47.8271 92.3214 47.8091 92.6401Z" fill="#E0E0E0"/>
<path d="M47.8091 99.1551V100.232C47.8091 100.808 48.224 101.056 48.7311 100.762L111.466 64.5506C111.734 64.3766 111.957 64.142 112.117 63.8658C112.277 63.5896 112.37 63.2797 112.388 62.9609V61.8781C112.388 61.3021 111.973 61.0602 111.466 61.3482L48.7311 97.5654C48.4634 97.7395 48.2404 97.9741 48.0802 98.2502C47.92 98.5264 47.8271 98.8364 47.8091 99.1551Z" fill="#E0E0E0"/>
<path d="M47.8091 105.628V106.7C47.8091 107.276 48.224 107.523 48.7311 107.23L111.466 71.0297C111.734 70.8553 111.956 70.6207 112.116 70.3446C112.277 70.0685 112.37 69.7586 112.388 69.44V68.3572C112.388 67.7812 111.973 67.5335 111.466 67.8273L48.7311 104.039C48.4634 104.213 48.2404 104.447 48.0802 104.724C47.92 105 47.8271 105.31 47.8091 105.628Z" fill="#E0E0E0"/>
<path d="M47.8091 119.976V121.053C47.8091 121.629 48.224 121.876 48.7311 121.583L111.466 85.3885C111.734 85.2145 111.957 84.9799 112.117 84.7037C112.277 84.4275 112.37 84.1175 112.388 83.7988V82.716C112.388 82.14 111.973 81.8981 111.466 82.1861L48.7311 118.386C48.4634 118.56 48.2404 118.795 48.0802 119.071C47.92 119.347 47.8271 119.657 47.8091 119.976Z" fill="#E0E0E0"/>
<path d="M47.8091 126.486V127.569C47.8091 128.145 48.224 128.387 48.7311 128.099L111.466 91.8871C111.734 91.7131 111.957 91.4785 112.117 91.2023C112.277 90.9262 112.37 90.6162 112.388 90.2974V89.2146C112.388 88.6386 111.973 88.391 111.466 88.6847L48.7311 124.896C48.4637 125.071 48.2409 125.305 48.0808 125.581C47.9206 125.857 47.8276 126.167 47.8091 126.486Z" fill="#E0E0E0"/>
<path d="M47.8091 132.964V134.041C47.8091 134.617 48.224 134.864 48.7311 134.571L111.466 98.3592C111.734 98.1852 111.957 97.9506 112.117 97.6744C112.277 97.3982 112.37 97.0882 112.388 96.7695V95.6867C112.388 95.1107 111.973 94.8688 111.466 95.1568L48.7311 131.374C48.4634 131.548 48.2404 131.783 48.0802 132.059C47.92 132.335 47.8271 132.645 47.8091 132.964Z" fill="#E0E0E0"/>
<path d="M47.8091 147.306V148.389C47.8091 148.965 48.224 149.207 48.7311 148.919L111.466 112.707C111.734 112.533 111.957 112.299 112.117 112.023C112.277 111.746 112.37 111.436 112.388 111.118V110.035C112.388 109.459 111.973 109.211 111.466 109.505L48.7311 145.716C48.4637 145.891 48.2409 146.126 48.0808 146.402C47.9206 146.678 47.8276 146.988 47.8091 147.306Z" fill="#E0E0E0"/>
<path d="M47.8091 153.82V154.897C47.8091 155.473 48.224 155.721 48.7311 155.427L111.466 119.215C111.734 119.043 111.957 118.809 112.117 118.534C112.277 118.259 112.37 117.949 112.388 117.631V116.549C112.388 115.973 111.973 115.725 111.466 116.019L48.7311 152.23C48.4634 152.404 48.2404 152.639 48.0802 152.915C47.92 153.191 47.8271 153.501 47.8091 153.82Z" fill="#E0E0E0"/>
<path d="M47.8091 160.295V161.377C47.8091 161.953 48.224 162.195 48.7311 161.907L111.466 125.707C111.734 125.533 111.957 125.299 112.117 125.023C112.277 124.746 112.37 124.436 112.388 124.118V123.035C112.388 122.459 111.973 122.211 111.466 122.505L48.7311 158.705C48.4637 158.879 48.2409 159.114 48.0808 159.39C47.9206 159.666 47.8276 159.976 47.8091 160.295Z" fill="#E0E0E0"/>
<path d="M80.1042 161.164L112.4 142.531V143.148L80.1042 161.786V161.164Z" fill="#E0E0E0"/>
<path d="M87.6192 151.487C88.962 150.588 90.4603 149.074 90.2183 147.282C90.0742 146.194 89.1867 145.773 88.184 146.159C86.2188 146.914 84.9798 149.868 84.294 151.654C83.7177 153.215 82.9282 156.158 85.2737 156.659C88.0226 157.235 90.1491 153.203 90.7715 151.107C90.858 150.813 90.3796 150.652 90.2413 150.917C89.9993 151.395 88.3741 154.551 90.1606 154.154C90.7946 154.015 91.1576 153.03 91.3881 152.529C91.7916 151.631 91.9932 150.381 92.6272 149.609L92.1604 149.396C92.1892 150.225 92.1604 150.79 92.7367 151.435C92.7805 151.495 92.8462 151.535 92.9196 151.547C92.9929 151.559 93.068 151.541 93.1285 151.498C94.0391 150.652 94.1025 149.275 95.1052 148.509L94.696 148.313C94.696 148.578 94.575 149.333 94.5577 149.684C94.5577 149.851 94.7825 149.961 94.915 149.909C95.0453 149.882 95.1665 149.822 95.2673 149.736C95.3681 149.649 95.4452 149.538 95.4913 149.413L95.0534 149.252C95.4337 151.285 97.1683 149.252 97.7619 148.48C99.4908 146.176 100.724 143.705 100.77 140.756C100.77 140.52 100.326 140.399 100.321 140.682C100.28 142.951 99.2891 145.03 98.6494 147.173C97.9636 149.477 97.3931 151.832 96.9205 154.205L97.3297 154.355C97.4596 152.676 97.889 151.034 98.5975 149.506C99.0444 148.144 99.7907 146.9 100.782 145.865L100.401 145.721C100.502 146.314 100.471 146.92 100.312 147.5C100.153 148.079 99.8686 148.616 99.4793 149.074C99.3582 149.229 99.6291 149.523 99.7501 149.367C100.384 148.572 101.427 148.319 102.107 147.547C102.746 146.68 103.315 145.763 103.807 144.806L103.496 144.65C103.456 146.585 105.283 143.567 105.53 143.245L105.231 143.129C105.352 143.527 105.513 143.792 105.963 143.798C106.856 143.798 107.19 142.496 107.864 142.346C107.864 142.346 108.158 142.594 108.262 142.605C108.634 142.66 109.013 142.589 109.34 142.404C110.093 141.917 110.702 141.236 111.103 140.434C111.207 140.25 110.855 140.019 110.74 140.221C110.296 140.97 108.913 142.957 107.91 141.983C107.847 141.926 107.714 141.868 107.645 141.949C107.374 142.283 105.824 144.057 105.536 143.101C105.502 142.986 105.334 142.859 105.242 142.985C105.006 143.297 104.816 143.642 104.597 143.97C104.476 144.149 103.801 145.284 103.824 144.708C103.824 144.569 103.611 144.408 103.513 144.552C102.885 145.514 102.424 146.775 101.548 147.559C100.897 148.135 100.044 148.354 99.4793 149.05L99.7501 149.344C100.185 148.854 100.506 148.273 100.688 147.643C100.871 147.013 100.911 146.351 100.805 145.704C100.796 145.665 100.778 145.628 100.752 145.597C100.725 145.566 100.692 145.543 100.654 145.529C100.616 145.514 100.575 145.51 100.535 145.515C100.495 145.521 100.457 145.536 100.424 145.56C99.3467 146.551 98.7416 147.945 98.2057 149.281C97.4866 150.841 97.0496 152.516 96.9148 154.228C96.9148 154.407 97.2778 154.609 97.3239 154.378C97.811 151.818 98.444 149.287 99.2199 146.798C99.8539 144.794 100.713 142.865 100.753 140.733L100.303 140.659C100.261 142.865 99.5649 145.01 98.3036 146.821C97.9809 147.323 97.6409 147.824 97.2721 148.296C97.1107 148.509 95.6815 150.375 95.4971 149.292C95.4683 149.137 95.1628 148.918 95.0591 149.131L94.6442 149.5L95.0015 149.719C95.0303 149.252 95.1225 148.814 95.1456 148.342C95.1456 148.163 94.8689 148.048 94.7364 148.152C93.7164 148.93 93.6414 150.306 92.7251 151.153L93.117 151.216C92.8058 150.695 92.6536 150.095 92.679 149.488C92.679 149.287 92.3678 149.091 92.2122 149.275C91.5092 150.116 91.2902 151.458 90.8291 152.437C90.5756 152.973 89.6766 154.401 89.9647 152.881C90.1556 152.251 90.4288 151.648 90.7773 151.089L90.2471 150.899C89.7054 152.731 88.2589 155.507 86.2822 156.083C83.7581 156.838 84.196 153.71 84.6571 152.316C85.2056 150.692 86.0196 149.17 87.066 147.812C87.2574 147.543 87.4735 147.292 87.7114 147.063C88.2301 146.603 88.3799 146.487 89.0945 146.896C89.8091 147.305 89.8437 147.53 89.6708 148.302C89.565 148.685 89.406 149.051 89.1982 149.39C88.7418 150.086 88.1686 150.698 87.5039 151.199C87.4117 151.274 87.5443 151.521 87.648 151.447L87.6192 151.487Z" fill="#455A64"/>
<path d="M165.061 115.556C162.975 115.061 160.675 116.547 159.333 119.818C157.99 123.09 155.299 131.453 154.722 133.642C154.469 134.621 161.915 143.295 161.638 143.168C161.557 143.128 164.064 138.935 164.064 138.935L160.451 133.377L162.756 127.346L165.061 115.556Z" fill="#B16668"/>
<path d="M160.232 193.198C159.949 193.308 159.875 193.843 159.834 194.926C159.8 195.738 159.627 197.149 160.578 197.431C161.529 197.714 162.917 197.57 163.528 196.809C164.264 195.786 165.05 194.799 165.885 193.855C166.825 192.841 167.839 191.902 168.219 190.485C168.565 189.207 168.277 188.654 167.407 188.279C166.202 187.772 164.318 189.431 163.373 189.702C162.572 189.921 160.514 193.094 160.232 193.198Z" fill="#263238"/>
<path d="M160.232 192.207V193.52C160.725 193.835 161.296 194.011 161.881 194.027C162.467 194.043 163.047 193.9 163.557 193.612C163.615 193.485 163.903 191.729 163.903 191.729L160.232 192.207Z" fill="#B16668"/>
<path d="M170.017 200.184C169.789 200.888 169.597 201.603 169.441 202.326C169.274 203.121 169.043 204.452 169.326 205.045C169.608 205.638 170.686 206.03 172.374 206.018C173.463 206.018 175.163 206.75 176.328 207.401C177.497 207.974 178.82 208.158 180.102 207.925C181.601 207.746 183.157 206.876 183.399 206.26C183.641 205.644 183.33 205.339 179.797 203.835C179.762 203.835 176.074 202.153 174.362 200.27L170.017 200.184Z" fill="#263238"/>
<path d="M170.017 198.762C170.017 198.762 170.017 199.735 170.017 200.294C170.017 200.853 170.674 201.682 172.38 201.624C173.579 201.578 174.414 201.256 174.362 200.271V198.854L170.017 198.762Z" fill="#B16668"/>
<path d="M158.935 173.983C159.218 171.676 159.757 169.408 160.543 167.221C160.543 167.221 159.799 161.403 159.39 155.816C158.624 145.8 159.24 142.529 161.211 138.036C161.211 138.036 178.022 136.308 178.535 143.318C179.174 152.015 178.327 168.822 178.097 171.892C177.866 174.962 177.578 176.35 176.495 182.766C175.665 187.65 174.385 198.853 174.385 198.853C173.709 199.196 172.959 199.367 172.201 199.351C171.443 199.335 170.701 199.132 170.04 198.761C170.04 198.761 168.669 184.776 168.813 181.234C168.914 178.613 169.358 176.016 170.132 173.51C170.132 173.51 169.089 159.336 168.79 157.078C168.79 157.078 168.259 161.576 168.029 164.646C167.798 167.716 166.876 170.653 166 176.361C165.228 181.309 163.793 192.373 163.793 192.373C161.563 193.583 160.232 192.218 160.232 192.218C160.232 192.218 158.336 178.274 158.935 173.983Z" fill="#204079"/>
<g opacity="0.35">
<path opacity="0.35" d="M158.935 173.983C159.218 171.676 159.757 169.408 160.543 167.221C160.543 167.221 159.799 161.403 159.39 155.816C158.624 145.8 159.24 142.529 161.211 138.036C161.211 138.036 178.022 136.308 178.535 143.318C179.174 152.015 178.327 168.822 178.097 171.892C177.866 174.962 177.578 176.35 176.495 182.766C175.665 187.65 174.385 198.853 174.385 198.853C173.709 199.196 172.959 199.367 172.201 199.351C171.443 199.335 170.701 199.132 170.04 198.761C170.04 198.761 168.669 184.776 168.813 181.234C168.914 178.613 169.358 176.016 170.132 173.51C170.132 173.51 169.089 159.336 168.79 157.078C168.79 157.078 168.259 161.576 168.029 164.646C167.798 167.716 166.876 170.653 166 176.361C165.228 181.309 163.793 192.373 163.793 192.373C161.563 193.583 160.232 192.218 160.232 192.218C160.232 192.218 158.336 178.274 158.935 173.983Z" fill="black"/>
</g>
<path d="M173.654 113.293L172.864 119.784L167.153 119.272L167.804 112.061L173.654 113.293Z" fill="#B16668"/>
<path d="M160.883 118.794C161.511 117.066 163.649 115.183 165.845 115.592L167.458 115.885C167.505 117.383 170.34 118.155 173.141 117.251C173.982 117.492 174.76 117.74 175.446 117.988C177.457 118.708 178.264 122.02 178.327 127.63C178.391 133.24 178.967 147.138 178.967 147.138L176.587 147.892L175.492 143.82L175.048 148.699C172.376 149.322 169.594 149.308 166.928 148.658C160.889 147.339 159.01 144.085 159.01 144.085C159.749 140.318 161.217 136.732 163.332 133.528C160.312 125.481 159.955 121.346 160.883 118.794Z" fill="url(#paint0_linear_2588_21308)"/>
<path d="M177.901 105.045C178.243 104.27 178.382 103.42 178.306 102.576C178.231 101.732 177.943 100.921 177.469 100.218C175.55 97.2118 171.856 96.6992 167.476 97.8742C165.947 98.3422 164.6 99.2705 163.619 100.532C162.638 101.794 162.071 103.328 161.995 104.924C161.782 108.132 170.743 110.5 170.536 112.7L177.901 105.045Z" fill="#263238"/>
<path d="M178.091 106.266C178.091 106.266 179.307 108.212 179.134 108.414C178.833 108.601 178.501 108.733 178.154 108.806L178.091 106.266Z" fill="#9A4A4D"/>
<path d="M174.385 100.097C175.596 100.765 177.693 101.998 178.12 106.548C178.558 111.213 177.474 112.803 176.823 113.396C176.385 113.8 174.166 113.886 173.025 113.5C171.596 113.01 168.507 111.386 167.107 108.944C165.459 106.064 165.205 102.292 167.234 100.88C168.262 100.155 169.457 99.7027 170.708 99.5657C171.959 99.4287 173.224 99.6115 174.385 100.097Z" fill="#B16668"/>
<path d="M174.743 100.299C174.743 100.299 175.699 104.573 174.339 107.211C174.339 107.211 173.636 105.535 172.195 105.973C170.755 106.41 170.83 108.328 171.93 109.336C172.212 109.624 172.569 109.827 172.96 109.921C173.352 110.015 173.762 109.996 174.143 109.866C173.658 111.076 172.93 112.173 172.005 113.092C172.005 113.092 167.747 114.987 164.064 110.828C160.716 107.055 161.338 100.461 166.461 98.9227C171.585 97.3848 174.743 100.299 174.743 100.299Z" fill="#263238"/>
<path d="M162.6 100.743C162.802 100.916 162.926 101.162 162.947 101.426C162.968 101.691 162.882 101.953 162.71 102.155L161.188 100.847C161.274 100.747 161.379 100.665 161.496 100.605C161.614 100.546 161.742 100.51 161.873 100.501C162.004 100.491 162.136 100.508 162.261 100.549C162.386 100.591 162.501 100.657 162.6 100.743Z" fill="#263238"/>
<path d="M189.917 128.292C190.746 127.347 191.069 125.239 192.164 123.799C193.259 122.36 193.674 121.305 194.112 121.933C194.688 122.768 193.386 124.433 193.674 124.6C193.962 124.767 195.045 126.962 195.155 128.183C195.264 129.404 192.031 132.468 192.031 132.468L189.917 128.292Z" fill="#B16668"/>
<path d="M193.582 124.408C193.582 124.408 197.489 124.074 198.059 124.408C198.63 124.742 198.457 126.436 198.059 127.472C197.662 128.509 195.668 129.2 193.818 130.433C193.818 130.249 193.582 124.408 193.582 124.408Z" fill="#B16668"/>
<path d="M174.962 117.832C176.639 118.408 178.108 119.093 179.676 122.037C181.687 125.821 185.352 133.228 185.352 133.228L189.916 128.292C189.916 128.292 190.579 127.359 191.812 129.398C193.046 131.437 192.504 132.001 192.504 132.001C192.504 132.001 187.196 139.108 186.222 140.013C185.248 140.917 183.646 140.214 182.597 138.792C181.549 137.369 174.962 129.127 174.962 129.127C174.962 129.127 171.36 124.392 174.962 117.832Z" fill="#B16668"/>
<path opacity="0.2" d="M168.79 157.066L168.467 153.673C166.638 153.401 164.889 152.739 163.338 151.732C163.338 151.732 164.433 153.46 167.43 154.278L167.741 158.598L167.925 165.683L168.79 157.066Z" fill="black"/>
<path d="M156.82 116.934C157.598 116.936 158.369 116.785 159.089 116.489C159.809 116.193 160.463 115.758 161.014 115.209C161.566 114.66 162.003 114.008 162.302 113.29C162.601 112.572 162.755 111.802 162.756 111.024V102.045C162.078 101.825 161.357 101.768 160.653 101.88C159.949 101.992 159.281 102.269 158.704 102.688C158.128 103.107 157.658 103.656 157.335 104.291C157.011 104.926 156.843 105.629 156.843 106.341L156.82 116.934Z" fill="#263238"/>
<path d="M178.454 133.509C178.454 133.509 175.175 129.281 174.126 127.582L178.569 136.959L178.454 133.509Z" fill="#E0E0E0"/>
<path d="M207.205 98.7897C205.96 102.459 203.304 113.402 203.304 113.402C203.304 113.402 198.238 120.135 196.843 121.42C196.071 122.134 194.325 123.418 194.325 123.418L195.777 124.49C195.777 124.49 198.198 123.752 198.399 125.066C200.923 123.036 203.31 120.843 205.545 118.499C206.109 117.911 206.507 117.184 206.698 116.391L208.859 107.101C208.859 107.101 208.859 99.6133 210.012 98.6342C211.164 97.655 210.709 95.4375 210.709 95.4375C209.919 95.4605 208.185 95.9156 207.205 98.7897Z" fill="#FFD0A6"/>
<path d="M210.749 95.0684C211.102 96.0592 211.53 97.022 212.029 97.9482C212.536 98.8179 208.657 114.456 208.398 115.619C208.139 116.783 200.618 123.562 200.618 123.562C199.259 122.987 198.18 121.904 197.61 120.544L203.039 113.482C203.039 113.482 204.727 106.075 205.615 102.677C206.502 99.2787 207.447 95.437 210.749 95.0684Z" fill="#1B3667"/>
<path d="M226.632 168.559H222.886V174.975H226.632V168.559Z" fill="#FFA8A7"/>
<path d="M211.303 170.113L207.557 170.24L207.367 163.455L211.303 163.328V170.113Z" fill="#FFA8A7"/>
<path d="M226.107 122.774C226.107 126.35 226.355 147.155 226.355 147.155C226.442 148.18 227.433 150.034 227.508 153.721C227.617 159.1 226.787 171.766 226.787 171.766C226.14 172.083 225.431 172.255 224.71 172.269C223.989 172.283 223.274 172.139 222.615 171.847C222.615 171.847 219.67 153.934 219.002 148.606C218.425 143.964 216.391 131.563 216.391 131.563L213.51 147.264C213.944 149.217 214.101 151.222 213.976 153.22C213.798 155.679 211.516 168.011 211.516 168.011C210.863 168.38 210.137 168.601 209.389 168.659C208.641 168.717 207.89 168.609 207.188 168.345C207.188 168.345 206.963 148.986 206.923 146.728C206.871 144.154 207.995 121.996 207.995 121.996L226.107 122.774Z" fill="#37474F"/>
<path d="M222.886 173.125V172.59C222.684 172.59 222.563 172.786 222.482 173.264C222.429 173.621 222.356 173.975 222.263 174.323C222.098 174.979 221.881 175.621 221.612 176.241C221.082 177.549 220.638 178.033 219.422 179.559C219.011 179.982 218.626 180.43 218.27 180.901C218.045 181.304 217.964 182.422 218.35 182.681C219.762 183.625 221.912 183.648 223.433 183.205C224 183.046 224.508 182.728 224.9 182.289C225.291 181.851 225.548 181.309 225.641 180.728C225.698 180.383 225.675 180.026 225.715 179.68C225.849 178.89 226.172 178.143 226.655 177.503C226.935 177.133 227.177 176.736 227.375 176.316C227.686 175.55 227.439 174.681 227.237 173.915C227.064 173.252 226.874 172.526 226.661 172.59V172.993C226.127 173.415 225.463 173.639 224.782 173.627C224.211 173.65 222.88 173.54 222.886 173.125Z" fill="#263238"/>
<path d="M207.516 169.088C207.32 169.088 207.165 169.37 206.732 169.837C206.091 170.482 205.347 171.017 204.531 171.421C203.125 172.123 200.399 173.201 199.16 173.759C198.388 174.105 198.428 175.038 199.223 175.568C200.019 176.098 201.949 176.478 204.26 175.965C205.517 175.683 207.142 174.52 208.196 174.583C209.251 174.646 211.176 174.629 211.942 174.099C212.709 173.569 212.403 172.446 212.184 171.478C211.948 170.424 211.654 168.771 211.302 168.846V169.209C210.853 169.894 208.525 170.171 207.539 169.67L207.516 169.088Z" fill="#263238"/>
<path d="M216.397 131.562C214.456 130.963 212.67 129.946 211.164 128.584C211.164 128.584 212.173 130.473 215.198 132.224L213.746 146.192L216.397 131.562Z" fill="#263238"/>
<path d="M219.607 95.3233C220.886 95.6343 223.457 96.0548 224.033 98.5948C224.724 101.642 224.949 108.283 224.949 108.283L225.185 123.062C222.604 124.94 213.124 125.942 207.689 121.997C207.689 121.997 208.358 104.257 208.358 101.492C208.358 98.7273 209.891 95.4097 214.121 95.1562L219.607 95.3233Z" fill="#F5F5F5"/>
<path d="M214.19 94.8784C213.024 95.8542 212.181 97.1591 211.769 98.6222C211.251 100.857 211.193 125.814 211.193 125.814C211.193 125.814 208.542 125.324 207.303 124.351C207.303 124.351 207.459 104.653 207.712 101.393C208.099 96.4566 208.058 95.0569 214.207 94.5098L214.19 94.8784Z" fill="#1C386A"/>
<path d="M220.725 94.5098C220.725 94.5098 217.192 96.6812 217.152 105.327C217.117 112.814 216.87 125.814 216.87 125.814C216.87 125.814 222.719 126.672 226.425 124.46C226.425 124.46 226.868 106.34 226.793 103.535C226.713 100.321 225.964 96.1686 224.932 95.7539C223.563 95.2352 222.156 94.8193 220.725 94.5098Z" fill="#1C386A"/>
<path d="M233.864 114.358C230.349 99.9928 227.75 95.2007 223.491 95.2583C222.241 96.7443 222.586 101.248 224.557 103.979C224.557 103.979 228.954 113.24 229.652 116.535C230.268 119.415 230.966 123.072 230.925 125.56C230.911 126 230.737 126.42 230.435 126.741C229.634 127.611 229.629 128.313 229.11 129.275C228.701 130.024 228.257 130.306 228.384 130.479C228.552 130.657 228.78 130.766 229.025 130.784C229.269 130.803 229.511 130.729 229.704 130.577C230.079 130.304 230.414 129.98 230.7 129.615C230.563 130.536 230.297 131.434 229.911 132.282C229.006 134.315 229.225 135.352 231.974 134.626C233.703 134.171 234.775 132.743 235.028 128.607C235.155 127.086 235.171 125.557 235.075 124.034C234.7 120.117 234.435 116.673 233.864 114.358Z" fill="#FFD0A6"/>
<path d="M222.748 95.024C222.748 95.024 225.577 94.8973 227.11 96.4466C228.643 97.996 230.712 101.256 232.717 108.381C234.723 115.506 235.34 120.712 235.438 124.721C235.438 124.721 232.925 125.873 230.608 124.56C230.608 124.56 229.582 118.357 228.672 115.056C227.761 111.756 224.367 104.804 224.367 104.804C224.367 104.804 221.122 99.9831 222.748 95.024Z" fill="#1C386A"/>
<path opacity="0.1" d="M222.748 95.024C222.748 95.024 225.577 94.8973 227.11 96.4466C228.643 97.996 230.712 101.256 232.717 108.381C234.723 115.506 235.34 120.712 235.438 124.721C235.438 124.721 232.925 125.873 230.608 124.56C230.608 124.56 229.582 118.357 228.672 115.056C227.761 111.756 224.367 104.804 224.367 104.804C224.367 104.804 221.122 99.9831 222.748 95.024Z" fill="black"/>
<path opacity="0.1" d="M221.117 99.2324L219.503 101.237L220.31 103.512L218.184 108.961L220.748 103.512L219.849 101.364L221.117 99.2324Z" fill="black"/>
<path opacity="0.1" d="M209.706 98.5938L210.058 100.662L208.657 102.482L210.605 108.616L209.095 102.551L210.392 100.846L209.706 98.5938Z" fill="black"/>
<path d="M218.633 83.8369C219.089 81.0298 217.182 78.3849 214.373 77.9292C211.565 77.4736 208.918 79.3798 208.462 82.1869C208.007 84.9939 209.914 87.6389 212.722 88.0946C215.531 88.5502 218.177 86.644 218.633 83.8369Z" fill="#263238"/>
<path d="M222.448 86.6719C222.448 86.6719 221.612 90.5943 221.295 91.2394C221.071 91.6347 220.704 91.9294 220.27 92.063L220.327 89.3041L222.448 86.6719Z" fill="#263238"/>
<path d="M221.399 81.0549C221.693 81.0221 221.99 81.057 222.267 81.1569C222.545 81.2567 222.796 81.4189 223.001 81.6309C223.687 82.3336 223.307 84.5108 222.425 86.6822L220.852 86.8607L221.399 81.0549Z" fill="#263238"/>
<path d="M220.385 86.8562C220.702 87.0405 221.152 86.4357 221.538 86.0325C221.69 85.8539 221.885 85.7174 222.105 85.6362C222.325 85.555 222.562 85.5318 222.794 85.5688C223.026 85.6059 223.244 85.7019 223.427 85.8477C223.611 85.9935 223.754 86.1841 223.843 86.4011C224.488 87.7604 223.267 89.5575 222.287 89.857C220.558 90.3984 220.304 89.281 220.304 89.281L220.178 95.6801C218.985 97.2064 216.311 99.0035 214.87 98.7443C213.717 98.5427 213.47 96.6016 214.57 95.3287V93.4511C213.808 93.5722 213.035 93.6108 212.265 93.5663C210.997 93.3704 210.202 92.374 209.816 91.0032C209.199 88.803 208.963 87.029 209.487 82.6976C210.064 77.9516 215.585 77.9055 218.564 79.7774C221.543 81.6494 220.385 86.8562 220.385 86.8562Z" fill="#FFD0A6"/>
<path d="M220.385 87.385C220.546 87.385 221.151 86.3886 221.538 86.0315C222.079 85.5361 221.376 81.0551 221.376 81.0551C221.564 80.6609 221.629 80.2193 221.563 79.7877C221.496 79.3562 221.3 78.9548 221.002 78.636C220.258 77.8181 219.221 76.8159 215.815 77.2191C213.406 77.5013 210.784 78.2501 208.663 77.2191C208.467 77.91 208.482 78.6436 208.706 79.326C208.93 80.0084 209.352 80.6085 209.92 81.0493C210.788 81.4802 211.735 81.731 212.703 81.7866C214.566 81.9273 216.437 81.8926 218.293 81.6829C218.869 81.6022 219.002 82.1667 219.319 83.7161C219.642 85.0696 219.872 87.3735 220.385 87.385Z" fill="#263238"/>
<path d="M221.399 81.4064L223.307 80.3806C223.245 80.2521 223.159 80.1373 223.052 80.0431C222.945 79.9489 222.821 79.8773 222.685 79.8326C222.55 79.7879 222.408 79.7711 222.266 79.783C222.124 79.795 221.986 79.8356 221.86 79.9023C221.607 80.048 221.419 80.2843 221.333 80.5635C221.247 80.8427 221.271 81.1439 221.399 81.4064Z" fill="#263238"/>
<path d="M214.582 93.4499C215.884 93.2016 217.161 92.8353 218.397 92.3555C218.978 92.0524 219.454 91.5805 219.763 91.002C219.614 91.5809 219.349 92.1237 218.985 92.5974C218.264 93.519 214.582 94.1986 214.582 94.1986V93.4499Z" fill="#C78A54"/>
<path d="M215.262 86.1486C215.262 86.3014 215.322 86.448 215.431 86.556C215.539 86.6641 215.685 86.7248 215.838 86.7248C215.991 86.7248 216.137 86.6641 216.246 86.556C216.354 86.448 216.414 86.3014 216.414 86.1486C216.414 85.9957 216.354 85.8491 216.246 85.7411C216.137 85.633 215.991 85.5723 215.838 85.5723C215.685 85.5723 215.539 85.633 215.431 85.7411C215.322 85.8491 215.262 85.9957 215.262 86.1486Z" fill="#263238"/>
<path d="M215.861 84.0098L217.071 84.6783C217.157 84.5115 217.176 84.318 217.123 84.1378C217.071 83.9576 216.951 83.8045 216.789 83.7101C216.709 83.6667 216.621 83.6401 216.53 83.6317C216.439 83.6234 216.348 83.6335 216.261 83.6615C216.174 83.6896 216.094 83.7348 216.025 83.7947C215.957 83.8545 215.901 83.9277 215.861 84.0098Z" fill="#263238"/>
<path d="M214.835 90.0586L213.544 90.5427C213.572 90.6299 213.616 90.7106 213.676 90.7801C213.735 90.8495 213.808 90.9061 213.89 90.9466C213.972 90.987 214.061 91.0103 214.152 91.0152C214.243 91.0201 214.335 91.0064 214.42 90.9749C214.594 90.9053 214.735 90.771 214.812 90.6002C214.89 90.4294 214.898 90.2354 214.835 90.0586Z" fill="#C78A54"/>
<path d="M210.208 84.4831L211.314 83.6302C211.262 83.5556 211.195 83.4923 211.118 83.4441C211.041 83.3959 210.955 83.3638 210.865 83.3498C210.775 83.3358 210.683 83.3402 210.595 83.3626C210.507 83.385 210.424 83.4251 210.352 83.4804C210.204 83.5975 210.107 83.7667 210.08 83.9531C210.053 84.1395 210.099 84.3292 210.208 84.4831Z" fill="#263238"/>
<path d="M210.548 85.963C210.548 86.1159 210.608 86.2624 210.716 86.3705C210.824 86.4786 210.971 86.5393 211.124 86.5393C211.277 86.5393 211.423 86.4786 211.531 86.3705C211.639 86.2624 211.7 86.1159 211.7 85.963C211.7 85.8102 211.639 85.6636 211.531 85.5555C211.423 85.4474 211.277 85.3867 211.124 85.3867C210.971 85.3867 210.824 85.4474 210.716 85.5555C210.608 85.6636 210.548 85.8102 210.548 85.963Z" fill="#263238"/>
<path d="M213.435 85.4434L213.245 88.8531L211.464 88.2483L213.435 85.4434Z" fill="#C78A54"/>
<path d="M212.818 98.3753C213.164 99.2047 213.81 99.5272 214.968 99.6712C215.554 99.7073 216.141 99.6238 216.694 99.4258C217.247 99.2277 217.754 98.9193 218.184 98.5193L216.743 97.0851L214.905 98.4617L214.749 96.9238L212.818 98.3753Z" fill="#081D43"/>
<path d="M213.729 97.9258C213.559 98.4235 213.494 98.9511 213.539 99.4751C213.594 99.9419 213.773 100.385 214.057 100.76C214.24 100.877 214.447 100.951 214.663 100.975C214.879 100.999 215.098 100.972 215.302 100.898C215.675 100.578 215.975 100.181 216.18 99.7347C216.386 99.2884 216.494 98.8031 216.495 98.3117L214.904 98.4902L213.729 97.9258Z" fill="#1C386A"/>
<path d="M214.046 100.76C214.046 100.76 212.161 111.127 212.086 111.98C212.011 112.832 213.164 115.793 213.884 115.816C214.605 115.839 216.011 113.149 216.028 112.36C216.045 111.571 215.29 100.869 215.29 100.869L214.046 100.76Z" fill="#1C386A"/>
<path opacity="0.1" d="M215.302 100.898C215.101 100.987 214.88 101.021 214.661 100.997C214.442 100.973 214.234 100.891 214.057 100.76V100.927C214.237 101.07 214.449 101.168 214.674 101.212C214.9 101.257 215.133 101.246 215.354 101.18L215.302 100.898Z" fill="black"/>
<path d="M214.904 98.4896L220.206 94.4578V93.2598C220.206 93.2598 221.439 93.7263 221.716 95.8977C220.866 97.7808 219.412 99.3271 217.584 100.292L216.472 98.3111L214.904 98.4896Z" fill="#E0E0E0"/>
<path d="M214.582 93.8066C213.889 93.9161 213.267 94.295 212.853 94.8607C212.323 95.7304 212.444 99.0768 212.444 99.0768L213.712 97.9249L214.864 98.5008C214.755 97.3892 214.536 95.3618 214.536 95.3618L214.582 93.8066Z" fill="#E0E0E0"/>
<path d="M193.875 130.469C194.371 129.774 194.66 128.953 194.711 128.102C194.861 127.013 197.846 125.844 197.944 126.656C198.042 127.468 198.313 128.142 197.368 129.127C196.423 130.112 195.264 131.2 193.875 130.469Z" fill="#FFD0A6"/>
<path d="M194.031 123.435C193.317 124.356 192.879 126.147 192.498 126.752C192.118 127.357 191.668 127.904 192.498 127.991C193.328 128.077 194.533 126.487 194.982 125.508C195.156 125.121 195.421 124.781 195.754 124.517C195.885 124.412 196.031 124.327 196.187 124.264C195.8 124.132 196.002 122.576 195.731 122.363C195.731 122.363 194.325 122.939 194.031 123.435Z" fill="#FFD0A6"/>
</g>
<defs>
<linearGradient id="paint0_linear_2588_21308" x1="2530.09" y1="8957.46" x2="1041.67" y2="10478.1" gradientUnits="userSpaceOnUse">
<stop stop-color="#AFB6E5"/>
<stop offset="0.15" stop-color="#B8BFE9"/>
<stop offset="0.96" stop-color="#E5E9FF"/>
</linearGradient>
<clipPath id="clip0_2588_21308">
<rect width="254" height="252" fill="white"/>
</clipPath>
</defs>
</svg>
